<?xml version="1.0" encoding="UTF-8" standalone="no"?>
<!-- Created with Inkscape (http://www.inkscape.org/) -->

<svg
   version="1.1"
   id="svg639"
   width="110mm"
   height="114.74mm"
   viewBox="0 0 415.74803 433.66295"
   sodipodi:docname="flowchart.svg"
   inkscape:version="1.2.2 (732a01da63, 2022-12-09)"
   inkscape:export-filename="flowchart.png"
   inkscape:export-xdpi="69.330002"
   inkscape:export-ydpi="69.330002"
   xmlns:inkscape="http://www.inkscape.org/namespaces/inkscape"
   xmlns:sodipodi="http://sodipodi.sourceforge.net/DTD/sodipodi-0.dtd"
   xmlns="http://www.w3.org/2000/svg"
   xmlns:svg="http://www.w3.org/2000/svg">
  <defs
     id="defs643">
    <rect
       x="281.53537"
       y="32.484848"
       width="6.2690058"
       height="23.936205"
       id="rect3264" />
  </defs>
  <sodipodi:namedview
     id="namedview641"
     pagecolor="#ffffff"
     bordercolor="#000000"
     borderopacity="0.25"
     inkscape:showpageshadow="2"
     inkscape:pageopacity="0.0"
     inkscape:pagecheckerboard="0"
     inkscape:deskcolor="#d1d1d1"
     showgrid="false"
     inkscape:zoom="5.1386409"
     inkscape:cx="251.03914"
     inkscape:cy="316.32878"
     inkscape:window-width="1920"
     inkscape:window-height="991"
     inkscape:window-x="2391"
     inkscape:window-y="-9"
     inkscape:window-maximized="1"
     inkscape:current-layer="g647"
     showguides="false"
     inkscape:document-units="mm">
    <inkscape:page
       x="0"
       y="0"
       id="page645"
       width="415.74805"
       height="433.66293"
       inkscape:export-filename="flowchart.png"
       inkscape:export-xdpi="429.59"
       inkscape:export-ydpi="429.59" />
  </sodipodi:namedview>
  <g
     id="g647"
     inkscape:groupmode="layer"
     inkscape:label="Page 1"
     transform="matrix(1.3333333,0,0,1.3333333,0,1.44e-5)">
    <path
       d="m 64.06065,43.130981 h 64.5 l -0.16,-0.004 0.64,-0.023 0.629,-0.129 0.602,-0.227 0.559,-0.324 0.496,-0.406 0.425,-0.481 0.344,-0.543 0.254,-0.59 0.152,-0.625 0.051,-0.64 v -31.938 l -0.051,-0.64 -0.152,-0.625 -0.254,-0.59 -0.344,-0.543 -0.425,-0.481 -0.496,-0.406 -0.559,-0.324 -0.602,-0.227 -0.629,-0.129 -0.48,-0.027 h -64.5 l 0.48,0.027 -0.64,-0.023 -0.641,0.074 -0.617,0.18 -0.578,0.277 -0.531,0.364 -0.461,0.445 -0.387,0.515 -0.297,0.567 -0.203,0.609 -0.105,0.637 -0.012,0.32 v 31.938 l 0.012,-0.321 v 0.641 l 0.105,0.637 0.203,0.609 0.297,0.567 0.387,0.515 0.461,0.446 0.531,0.363 0.578,0.277 0.617,0.18 0.641,0.074 z"
       style="fill:#4d4d4d;fill-opacity:1;fill-rule:nonzero;stroke:#000000;stroke-width:0.75;stroke-linecap:round;stroke-linejoin:round;stroke-miterlimit:10;stroke-dasharray:none;stroke-opacity:1"
       id="path653"
       inkscape:export-filename="flowchart.png"
       inkscape:export-xdpi="152.58289"
       inkscape:export-ydpi="152.58289" />
    <text
       xml:space="preserve"
       style="font-style:normal;font-variant:normal;font-weight:normal;font-stretch:normal;font-size:10.2587px;font-family:sans-serif;-inkscape-font-specification:'sans-serif, Normal';font-variant-ligatures:normal;font-variant-caps:normal;font-variant-numeric:normal;font-variant-east-asian:normal;writing-mode:lr-tb;fill:#ffffff;fill-opacity:1;fill-rule:nonzero;stroke:none;stroke-width:1.28234"
       id="text659"
       x="61.785099"
       y="20.268898"><tspan
         sodipodi:role="line"
         id="tspan5968"
         x="61.785099"
         y="20.268898">452 compiled </tspan><tspan
         sodipodi:role="line"
         id="tspan5970"
         x="61.785099"
         y="33.092274">  timeseries</tspan></text>
    <path
       d="m 56.72465,115.13098 h 79.172 l -0.16,-0.004 0.64,-0.023 0.629,-0.129 0.602,-0.227 0.558,-0.324 0.497,-0.406 0.425,-0.481 0.344,-0.543 0.254,-0.59 0.152,-0.625 0.051,-0.64 V 79.200981 l -0.051,-0.64 -0.152,-0.625 -0.254,-0.59 -0.344,-0.543 -0.425,-0.481 -0.497,-0.406 -0.558,-0.324 -0.602,-0.227 -0.629,-0.129 -0.48,-0.027 h -79.172 l 0.481,0.027 -0.641,-0.023 -0.641,0.074 -0.617,0.18 -0.578,0.277 -0.531,0.364 -0.461,0.445 -0.387,0.515 -0.297,0.567 -0.203,0.609 -0.105,0.637 -0.012,0.32 v 31.937999 l 0.012,-0.321 v 0.641 l 0.105,0.637 0.203,0.609 0.297,0.567 0.387,0.515 0.461,0.446 0.531,0.363 0.578,0.277 0.617,0.18 0.641,0.074 z"
       style="fill:#4d4d4d;fill-opacity:1;fill-rule:nonzero;stroke:#000000;stroke-width:0.75;stroke-linecap:round;stroke-linejoin:round;stroke-miterlimit:10;stroke-dasharray:none;stroke-opacity:1"
       id="path661" />
    <text
       xml:space="preserve"
       style="font-style:normal;font-variant:normal;font-weight:normal;font-stretch:normal;font-size:9.40418px;font-family:sans-serif;-inkscape-font-specification:'sans-serif, Normal';font-variant-ligatures:normal;font-variant-caps:normal;font-variant-numeric:normal;font-variant-east-asian:normal;writing-mode:lr-tb;fill:#ffffff;fill-opacity:1;fill-rule:nonzero;stroke:none;stroke-width:1.17552"
       id="text667"
       x="54.162384"
       y="92.985603"><tspan
         sodipodi:role="line"
         id="tspan5976"
         x="54.162384"
         y="92.985603"
         style="stroke-width:1.17552">195 met inclusion </tspan><tspan
         sodipodi:role="line"
         id="tspan5978"
         x="54.162384"
         y="104.74083"
         style="stroke-width:1.17552">         criteria</tspan></text>
    <path
       d="m 165.81397,100.13962 h 121.49856 l -0.23317,-0.006 0.92518,-0.0549 0.90372,-0.28161 0.8627,-0.494231 0.80207,-0.698399 0.71346,-0.88004 0.61275,-1.044784 0.4915,-1.177142 0.36466,-1.28134 0.22197,-1.353149 0.0727,-1.392576 V 22.162042 l -0.0727,-1.392575 -0.22197,-1.351743 -0.36466,-1.282747 -0.4915,-1.177141 -0.61275,-1.044785 -0.71346,-0.880039 -0.80207,-0.698401 -0.8627,-0.49423 -0.90372,-0.281613 -0.69201,-0.06055 H 165.81397 l 0.69202,0.06055 -0.92144,-0.05492 -0.91772,0.170376 -0.88507,0.38581 -0.83472,0.599835 -0.76104,0.791332 -0.66683,0.968749 -0.55398,1.110963 -0.42996,1.237688 -0.29097,1.319358 -0.15016,1.375678 -0.0177,0.6984 v 69.313386 l 0.0177,-0.6984 v 1.3968 l 0.15016,1.375679 0.29097,1.319358 0.42996,1.237688 0.55398,1.110963 0.66683,0.968749 0.76104,0.791332 0.83472,0.599835 0.88507,0.385809 0.91772,0.170374 z"
       style="fill:#4d4d4d;fill-opacity:1;fill-rule:nonzero;stroke:#000000;stroke-width:0.859466;stroke-linecap:round;stroke-linejoin:round;stroke-miterlimit:10;stroke-dasharray:none;stroke-opacity:1"
       id="path669" />
    <path
       d="m 40.89665,181.37298 h 110.828 l -0.113,-0.004 0.457,-0.019 0.445,-0.09 0.43,-0.164 0.394,-0.227 0.356,-0.289 0.301,-0.344 0.246,-0.386 0.179,-0.418 0.11,-0.446 0.035,-0.453 v -22.726 l -0.035,-0.453 -0.11,-0.446 -0.179,-0.418 -0.246,-0.386 -0.301,-0.344 -0.356,-0.289 -0.394,-0.227 -0.43,-0.164 -0.445,-0.09 -0.344,-0.023 h -110.828 l 0.344,0.023 -0.457,-0.019 -0.453,0.054 -0.442,0.129 -0.414,0.196 -0.375,0.258 -0.328,0.316 -0.277,0.367 -0.211,0.402 -0.145,0.434 -0.074,0.453 -0.008,0.227 v 22.726 l 0.008,-0.23 v 0.457 l 0.074,0.453 0.145,0.434 0.211,0.402 0.277,0.367 0.328,0.317 0.375,0.257 0.414,0.196 0.442,0.129 0.453,0.054 z"
       style="fill:#4d4d4d;fill-opacity:1;fill-rule:nonzero;stroke:#000000;stroke-width:0.75;stroke-linecap:round;stroke-linejoin:round;stroke-miterlimit:10;stroke-dasharray:none;stroke-opacity:1"
       id="path683" />
    <text
       xml:space="preserve"
       style="font-style:normal;font-variant:normal;font-weight:normal;font-stretch:normal;font-size:8.34132px;font-family:sans-serif;-inkscape-font-specification:'sans-serif, Normal';font-variant-ligatures:normal;font-variant-caps:normal;font-variant-numeric:normal;font-variant-east-asian:normal;writing-mode:lr-tb;fill:#ffffff;fill-opacity:1;fill-rule:nonzero;stroke:none;stroke-width:1.04266"
       id="text687"
       x="40.596249"
       y="169.52319"><tspan
         sodipodi:role="line"
         id="tspan5980"
         x="40.596249"
         y="169.52319"
         style="stroke-width:1.04266">165 regime shifts detected</tspan></text>
    <path
       d="m 184.68965,148.97498 h 54.242 -0.141 l 0.571,-0.024 0.562,-0.117 0.535,-0.203 0.497,-0.285 0.445,-0.363 0.379,-0.43 0.308,-0.485 0.223,-0.527 0.137,-0.555 0.047,-0.57 v -28.492 l -0.047,-0.57 -0.137,-0.555 -0.223,-0.527 -0.308,-0.485 -0.379,-0.429 -0.445,-0.364 -0.497,-0.285 -0.535,-0.203 -0.562,-0.117 -0.43,-0.024 h -54.242 l 0.43,0.024 -0.575,-0.024 -0.57,0.071 -0.551,0.16 -0.515,0.246 -0.473,0.324 -0.414,0.399 -0.344,0.457 -0.265,0.507 -0.18,0.543 -0.094,0.567 -0.012,0.285 v 28.492 l 0.012,-0.289 v 0.574 l 0.094,0.567 0.18,0.543 0.265,0.507 0.344,0.457 0.414,0.399 0.473,0.324 0.515,0.246 0.551,0.16 0.57,0.071 z"
       style="fill:#4d4d4d;fill-opacity:1;fill-rule:nonzero;stroke:#000000;stroke-width:0.75;stroke-linecap:round;stroke-linejoin:round;stroke-miterlimit:10;stroke-dasharray:none;stroke-opacity:1"
       id="path689" />
    <text
       xml:space="preserve"
       style="font-variant:normal;font-weight:normal;font-size:8.37803px;font-family:Arial;-inkscape-font-specification:ArialMT;writing-mode:lr-tb;fill:#ffffff;fill-opacity:1;fill-rule:nonzero;stroke:none;stroke-width:1.39634"
       id="text695"
       x="184.85522"
       y="128.12646"><tspan
         x="184.85522 189.51341 194.1716 196.49234 201.15053 205.80872 208.12941 210.91931 215.5775 220.23569 222.09561 229.07449"
         y="128.12646"
         sodipodi:role="line"
         id="tspan691"
         style="stroke-width:1.39634">30 no regime</tspan><tspan
         x="184.85522 189.04425 193.70244 195.56236 197.8831 200.2038 204.39281 206.71355 211.37173 216.02992 218.35062 223.0088 227.19781 229.51857 234.17674"
         y="140.19171"
         sodipodi:role="line"
         id="tspan693"
         style="stroke-width:1.39634">shifts detected</tspan></text>
    <path
       d="M 7.3234856,248.27757 H 56.297824 l -0.191784,-0.003 0.767137,-0.0238 0.752298,-0.11127 0.717116,-0.19883 0.66244,-0.2809 0.596649,-0.35556 0.506798,-0.42138 0.408588,-0.4743 0.301109,-0.51705 0.184375,-0.54623 0.06117,-0.55912 v -27.92621 l -0.06117,-0.55912 -0.184375,-0.54622 -0.301109,-0.51705 -0.408588,-0.47431 -0.506798,-0.42137 -0.596649,-0.35488 -0.66244,-0.28159 -0.717116,-0.19882 -0.752298,-0.11127 -0.575353,-0.0264 H 7.3234856 l 0.5753428,0.0264 -0.7671267,-0.0238 -0.7634328,0.0692 -0.7347167,0.15608 -0.6948588,0.24156 -0.6300095,0.31823 -0.5531151,0.38948 -0.4595415,0.44784 -0.3585583,0.49806 -0.2427359,0.53265 -0.123231,0.55437 -0.013814,0.28091 v 27.92607 l 0.013814,-0.28091 v 0.56185 l 0.123231,0.55435 0.2427359,0.53267 0.3585583,0.49805 0.4595415,0.44784 0.5531151,0.39015 0.6300095,0.31757 0.6948588,0.24155 0.7347167,0.15606 0.7634328,0.0692 z"
       style="fill:#d45500;fill-opacity:1;fill-rule:nonzero;stroke:#552200;stroke-width:0.594662;stroke-linecap:round;stroke-linejoin:round;stroke-miterlimit:10;stroke-dasharray:none;stroke-opacity:1"
       id="path697" />
    <text
       xml:space="preserve"
       style="font-style:normal;font-variant:normal;font-weight:normal;font-stretch:normal;font-size:9.56697px;font-family:sans-serif;-inkscape-font-specification:'sans-serif, Normal';font-variant-ligatures:normal;font-variant-caps:normal;font-variant-numeric:normal;font-variant-east-asian:normal;writing-mode:lr-tb;fill:#ffffff;fill-opacity:1;fill-rule:nonzero;stroke:none;stroke-width:1.19588"
       id="text705"
       x="3.9044919"
       y="229.51791"
       transform="scale(1.0132712,0.98690263)"><tspan
         sodipodi:role="line"
         id="tspan5940"
         x="3.9044919"
         y="229.51791"
         style="stroke-width:1.19588">      26 </tspan><tspan
         sodipodi:role="line"
         id="tspan5942"
         x="3.9044919"
         y="241.47662"
         style="stroke-width:1.19588">established</tspan><tspan
         sodipodi:role="line"
         id="tspan5944"
         x="3.9044919"
         y="253.43533"
         style="stroke-width:1.19588"> </tspan></text>
    <path
       d="m 88.100617,248.32913 h 45.737203 l -0.19922,-0.003 0.79302,-0.0238 0.78147,-0.11143 0.7449,-0.19908 0.69196,-0.28128 0.61594,-0.35602 0.53029,-0.42193 0.42442,-0.47492 0.31278,-0.51772 0.19152,-0.54694 0.0635,-0.55985 v -27.96257 l -0.0635,-0.55986 -0.19152,-0.54692 -0.31278,-0.51773 -0.42442,-0.47493 -0.53029,-0.42192 -0.61594,-0.35534 -0.69196,-0.28196 -0.7449,-0.19908 -0.78147,-0.11143 -0.5938,-0.0265 H 88.100617 l 0.597654,0.0265 -0.796873,-0.0238 -0.789163,0.0692 -0.767041,0.15628 -0.717952,0.24187 -0.65828,0.31865 -0.570707,0.38999 -0.481201,0.44843 -0.368596,0.49869 -0.252152,0.53336 -0.127999,0.55509 -0.01826,0.28128 v 27.96257 l 0.01826,-0.28128 v 0.56256 l 0.127999,0.55508 0.252152,0.53336 0.368596,0.49871 0.481201,0.44842 0.570707,0.39067 0.65828,0.31798 0.717952,0.24188 0.767041,0.15626 0.789163,0.0692 z"
       style="fill:#a02c2c;fill-opacity:1;fill-rule:nonzero;stroke:#550000;stroke-width:0.606474;stroke-linecap:round;stroke-linejoin:round;stroke-miterlimit:10;stroke-dasharray:none;stroke-opacity:1"
       id="path707" />
    <text
       xml:space="preserve"
       style="font-style:normal;font-variant:normal;font-weight:normal;font-stretch:normal;font-size:10.7221px;font-family:sans-serif;-inkscape-font-specification:'sans-serif, Normal';font-variant-ligatures:normal;font-variant-caps:normal;font-variant-numeric:normal;font-variant-east-asian:normal;writing-mode:lr-tb;fill:#ffffff;fill-opacity:1;fill-rule:nonzero;stroke:none;stroke-width:1.34027"
       id="text715"
       x="84.074173"
       y="225.12811"
       transform="scale(0.99329338,1.0067519)"><tspan
         sodipodi:role="line"
         id="tspan5928"
         x="84.074173"
         y="225.12811">     52 </tspan><tspan
         sodipodi:role="line"
         id="tspan5930"
         x="84.074173"
         y="238.53073">overshoot</tspan><tspan
         sodipodi:role="line"
         id="tspan5932"
         x="84.074173"
         y="251.93336"> </tspan></text>
    <path
       d="m 170.8074,248.40283 h 61.62436 l -0.2226,-0.003 0.88719,-0.0244 0.87322,-0.11442 0.83129,-0.20443 0.7732,-0.28883 0.68933,-0.36559 0.59255,-0.43326 0.47424,-0.48768 0.34843,-0.53163 0.214,-0.56163 0.0721,-0.57489 v -28.71371 l -0.0721,-0.57489 -0.214,-0.56164 -0.34843,-0.53163 -0.47424,-0.48767 -0.59255,-0.43326 -0.68933,-0.36489 -0.7732,-0.28954 -0.83129,-0.20442 -0.87322,-0.11442 -0.66459,-0.0272 H 170.8074 l 0.66782,0.0272 -0.89043,-0.0244 -0.88291,0.0712 -0.85708,0.16047 -0.80223,0.24838 -0.73451,0.3272 -0.63878,0.40047 -0.5377,0.46047 -0.41187,0.5121 -0.28176,0.54768 -0.14195,0.57 -0.0215,0.28884 v 28.71372 l 0.0215,-0.28884 v 0.57768 l 0.14195,0.57 0.28176,0.54768 0.41187,0.5121 0.5377,0.46047 0.63878,0.40116 0.73451,0.32651 0.80223,0.24838 0.85708,0.16047 0.88291,0.0712 z"
       style="fill:#50164a;fill-opacity:1;fill-rule:nonzero;stroke:#22002b;stroke-width:0.649641;stroke-linecap:round;stroke-linejoin:round;stroke-miterlimit:10;stroke-dasharray:none;stroke-opacity:1"
       id="path717" />
    <text
       xml:space="preserve"
       style="font-style:normal;font-variant:normal;font-weight:normal;font-stretch:normal;font-size:10.5712px;font-family:Arial;-inkscape-font-specification:'Arial, Normal';font-variant-ligatures:normal;font-variant-caps:normal;font-variant-numeric:normal;font-variant-east-asian:normal;writing-mode:lr-tb;fill:#ffffff;fill-opacity:1;fill-rule:nonzero;stroke:none;stroke-width:1.3214"
       id="text725"
       x="169.05846"
       y="227.29803"><tspan
         sodipodi:role="line"
         id="tspan4836"
         x="169.05846"
         y="227.29803">          87</tspan><tspan
         sodipodi:role="line"
         id="tspan4838"
         x="169.05846"
         y="240.51204">≥ 90% decline</tspan></text>
    <path
       d="m 96.31065,43.130981 v 32.078"
       style="fill:#000000;stroke:#000000;stroke-width:1.24724;stroke-linecap:round;stroke-linejoin:round;stroke-miterlimit:10;stroke-dasharray:none;stroke-opacity:1"
       id="path771" />
    <path
       d="m 92.70865,68.974981 3.602,6.234 3.602,-6.234 z"
       style="fill:#000000;fill-opacity:1;fill-rule:nonzero;stroke:#000000;stroke-width:0.75;stroke-linecap:round;stroke-linejoin:round;stroke-miterlimit:10;stroke-dasharray:none;stroke-opacity:1"
       id="path773" />
    <path
       d="M 158.51149,59.254781 H 96.53615"
       style="fill:#000000;stroke:#000000;stroke-width:1.24724;stroke-linecap:round;stroke-linejoin:round;stroke-miterlimit:10;stroke-dasharray:none;stroke-opacity:1"
       id="path775" />
    <path
       d="m 153.82126,62.816821 6.17759,-3.69791 -6.28892,-3.50523 z"
       style="fill:#000000;fill-opacity:1;fill-rule:nonzero;stroke:#000000;stroke-width:0.75;stroke-linecap:round;stroke-linejoin:round;stroke-miterlimit:10;stroke-dasharray:none;stroke-opacity:1"
       id="path777" />
    <path
       d="m 96.31065,115.13098 v 37.836"
       style="fill:none;stroke:#000000;stroke-width:1.24724;stroke-linecap:round;stroke-linejoin:round;stroke-miterlimit:10;stroke-dasharray:none;stroke-opacity:1"
       id="path779" />
    <path
       d="m 92.70865,146.73298 3.602,6.234 3.602,-6.234 z"
       style="fill:#000000;fill-opacity:1;fill-rule:nonzero;stroke:#000000;stroke-width:0.75;stroke-linecap:round;stroke-linejoin:round;stroke-miterlimit:10;stroke-dasharray:none;stroke-opacity:1"
       id="path781" />
    <path
       d="m 174.31065,131.16998 h -77.316"
       style="fill:none;stroke:#000000;stroke-width:1.24724;stroke-linecap:round;stroke-linejoin:round;stroke-miterlimit:10;stroke-dasharray:none;stroke-opacity:1"
       id="path783" />
    <path
       d="m 181.04891,131.17223 -6.23319,-3.60341 -0.009,7.1998 z"
       style="fill:#000000;fill-opacity:1;fill-rule:nonzero;stroke:#000000;stroke-width:0.75;stroke-linecap:round;stroke-linejoin:round;stroke-miterlimit:10;stroke-dasharray:none;stroke-opacity:1"
       id="path785" />
    <path
       d="m 96.44982,181.23381 v 16.17416 H 31.845818 v 16.17818"
       style="fill:none;stroke:#000000;stroke-width:1.24724;stroke-linecap:round;stroke-linejoin:round;stroke-miterlimit:10;stroke-dasharray:none;stroke-opacity:1"
       id="path787" />
    <path
       d="m 28.20865,207.21298 3.602,6.234 3.602,-6.234 z"
       style="fill:#000000;fill-opacity:1;fill-rule:nonzero;stroke:#000000;stroke-width:0.75;stroke-linecap:round;stroke-linejoin:round;stroke-miterlimit:10;stroke-dasharray:none;stroke-opacity:1"
       id="path789" />
    <path
       d="m 96.31065,181.1884 v 16.28716"
       style="fill:none;stroke:#000000;stroke-width:0.53445;stroke-linecap:round;stroke-linejoin:round;stroke-miterlimit:10;stroke-dasharray:none;stroke-opacity:1"
       id="path791" />
    <path
       d="m 109.81065,197.53993 v 14.9481"
       style="fill:none;stroke:#000000;stroke-width:1.24724;stroke-linecap:round;stroke-linejoin:round;stroke-miterlimit:10;stroke-dasharray:none;stroke-opacity:1"
       id="path791-1" />
    <path
       d="m 106.20865,207.21298 3.602,6.234 3.602,-6.234 z"
       style="fill:#000000;fill-opacity:1;fill-rule:nonzero;stroke:#000000;stroke-width:0.75;stroke-linecap:round;stroke-linejoin:round;stroke-miterlimit:10;stroke-dasharray:none;stroke-opacity:1"
       id="path793" />
    <path
       d="M 96.422007,182.59921 V 197.3386 H 203.28173 v 14.74305"
       style="fill:none;stroke:#000000;stroke-width:1.24724;stroke-linecap:round;stroke-linejoin:round;stroke-miterlimit:10;stroke-dasharray:none;stroke-opacity:1"
       id="path795" />
    <path
       d="m 199.42678,206.29596 3.602,6.234 3.602,-6.234 z"
       style="fill:#000000;fill-opacity:1;fill-rule:nonzero;stroke:#000000;stroke-width:0.75;stroke-linecap:round;stroke-linejoin:round;stroke-miterlimit:10;stroke-dasharray:none;stroke-opacity:1"
       id="path797" />
    <rect
       style="fill:#d45500;stroke:#d45500;stroke-width:0.975;stroke-miterlimit:0.4"
       id="rect5578"
       width="35.958092"
       height="33.192085"
       x="419.91394"
       y="-1.3086569" />
    <rect
       style="fill:#a02c2c;stroke:#a02c2c;stroke-width:0.975;stroke-miterlimit:0.4"
       id="rect5580"
       width="35.958092"
       height="32.270081"
       x="419.45294"
       y="33.610439" />
    <rect
       style="fill:#50164a;stroke:#50164a;stroke-width:0.975;stroke-miterlimit:0.4"
       id="rect5582"
       width="35.036087"
       height="34.114082"
       x="419.91394"
       y="68.068535" />
    <rect
       style="fill:#501549;fill-opacity:0.74902;stroke:#50164a;stroke-width:0.975;stroke-miterlimit:0.4;stroke-opacity:0.75"
       id="rect5582-8"
       width="35.036087"
       height="34.114082"
       x="380.61182"
       y="67.724518" />
    <rect
       style="fill:#50164a;fill-opacity:0.501441;stroke:#50164a;stroke-width:0.975;stroke-miterlimit:0.4;stroke-opacity:0.504323"
       id="rect5582-84"
       width="35.036087"
       height="34.114082"
       x="342.57138"
       y="68.031586" />
    <text
       xml:space="preserve"
       transform="matrix(0.75000001,0,0,0.75000001,0,-1.08e-5)"
       id="text3262"
       style="font-style:normal;font-variant:normal;font-weight:normal;font-stretch:condensed;font-size:10.4382px;font-family:Arial;-inkscape-font-specification:'Arial, Condensed';font-variant-ligatures:normal;font-variant-position:super;font-variant-caps:normal;font-variant-numeric:normal;font-variant-east-asian:normal;text-align:justify;white-space:pre;shape-inside:url(#rect3264);display:inline;fill:#000000;stroke:#000000;stroke-width:0.533;stroke-miterlimit:0.4" />
    <text
       xml:space="preserve"
       style="font-style:normal;font-variant:normal;font-weight:normal;font-stretch:condensed;font-size:9.73451px;font-family:Arial;-inkscape-font-specification:'Arial, Condensed';font-variant-ligatures:normal;font-variant-position:super;font-variant-caps:normal;font-variant-numeric:normal;font-variant-east-asian:normal;text-align:justify;fill:#ffffff;stroke:#ffffff;stroke-width:0;stroke-miterlimit:0.4;stroke-dasharray:none"
       x="169.69058"
       y="24.038349"
       id="text3270"><tspan
         sodipodi:role="line"
         id="tspan5946"
         x="169.69058"
         y="24.038349"
         style="stroke-width:0">257 excluded:</tspan><tspan
         sodipodi:role="line"
         id="tspan5948"
         x="169.69058"
         y="36.206486"
         style="stroke-width:0">-192: years survey &lt;10 years</tspan><tspan
         sodipodi:role="line"
         id="tspan5950"
         x="169.69058"
         y="48.374626"
         style="stroke-width:0">          or &lt; 8 years if longevity is </tspan><tspan
         sodipodi:role="line"
         id="tspan5952"
         x="169.69058"
         y="60.542763"
         style="stroke-width:0">          &lt; 1 year</tspan><tspan
         sodipodi:role="line"
         id="tspan5954"
         x="169.69058"
         y="72.710899"
         style="stroke-width:0">-141: 10 consecutive years </tspan><tspan
         sodipodi:role="line"
         id="tspan5956"
         x="169.69058"
         y="84.879036"
         style="stroke-width:0">         &lt; 80% complete</tspan><tspan
         sodipodi:role="line"
         id="tspan5958"
         x="169.69058"
         y="97.04718"
         style="stroke-width:0">-10: harvest</tspan></text>
    <path
       d="m 116.51162,313.30734 h 41.66971 -0.12489 l 0.50035,-0.017 0.49099,-0.0813 0.46914,-0.14302 0.43636,-0.20415 0.38717,-0.25581 0.33253,-0.30308 0.26854,-0.34213 0.19749,-0.37112 0.11942,-0.3938 0.0399,-0.40386 V 290.6686 l -0.0399,-0.40324 -0.11942,-0.39379 -0.19749,-0.37175 -0.26854,-0.34213 -0.33253,-0.30244 -0.38717,-0.25646 -0.43636,-0.20162 -0.46914,-0.14554 -0.49099,-0.0807 -0.37546,-0.0176 h -41.66971 l 0.37468,0.0176 -0.50036,-0.015 -0.49958,0.0491 -0.48162,0.11089 -0.45119,0.17453 -0.41528,0.22937 -0.35985,0.28037 -0.30131,0.32512 -0.23184,0.35662 -0.15846,0.38373 -0.0827,0.40135 -0.009,0.20162 v 20.12344 l 0.009,-0.20161 v 0.40583 l 0.0827,0.39884 0.15846,0.38372 0.23184,0.35979 0.30131,0.32196 0.35985,0.28101 0.41528,0.22872 0.45119,0.17454 0.48162,0.11341 0.49958,0.0491 z"
       style="fill:#50164a;fill-opacity:1;fill-rule:nonzero;stroke:#22002b;stroke-width:0.525982;stroke-linecap:round;stroke-linejoin:round;stroke-miterlimit:10;stroke-dasharray:none;stroke-opacity:1"
       id="path465" />
    <text
       xml:space="preserve"
       style="font-style:normal;font-variant:normal;font-weight:normal;font-stretch:normal;font-size:8px;font-family:sans-serif;-inkscape-font-specification:'sans-serif, Normal';font-variant-ligatures:normal;font-variant-caps:normal;font-variant-numeric:normal;font-variant-east-asian:normal;writing-mode:lr-tb;fill:#ffffff;fill-opacity:1;fill-rule:nonzero;stroke:none"
       id="text471"
       x="115.26428"
       y="298.24872"><tspan
         sodipodi:role="line"
         id="tspan3764"
         x="115.26428"
         y="298.24872">37 boom &amp;</tspan><tspan
         sodipodi:role="line"
         id="tspan3766"
         x="115.26428"
         y="308.24872">bust</tspan></text>
    <path
       d="m 179.684,320.29719 h 45.92351 -0.11086 l 0.44348,-0.0219 0.43585,-0.10542 0.41715,-0.18544 0.38666,-0.26467 0.34371,-0.33165 0.29517,-0.39293 0.23837,-0.44356 0.176,-0.48115 0.10533,-0.51055 0.0354,-0.52362 v -26.08967 l -0.0354,-0.52281 -0.10533,-0.51055 -0.176,-0.48197 -0.23837,-0.44355 -0.29517,-0.39212 -0.34371,-0.33246 -0.38666,-0.2614 -0.41715,-0.18871 -0.43585,-0.10455 -0.33262,-0.0228 H 179.684 l 0.3333,0.0228 -0.44417,-0.0194 -0.44348,0.0638 -0.42823,0.14379 -0.40052,0.22627 -0.36794,0.29735 -0.31945,0.36351 -0.26816,0.42151 -0.2058,0.46235 -0.14067,0.4975 -0.0727,0.52035 -0.008,0.26141 v 26.08965 l 0.008,-0.2614 v 0.52606 l 0.0727,0.51709 0.14067,0.4975 0.2058,0.46645 0.26816,0.41741 0.31945,0.36433 0.36794,0.29653 0.40052,0.22627 0.42823,0.14705 0.44348,0.0638 z"
       style="fill:#50164a;fill-opacity:1;fill-rule:nonzero;stroke:#22002b;stroke-width:0.56409448;stroke-linecap:round;stroke-linejoin:round;stroke-miterlimit:10;stroke-dasharray:none;stroke-opacity:1"
       id="path473" />
    <text
       xml:space="preserve"
       style="font-style:normal;font-variant:normal;font-weight:normal;font-stretch:normal;font-size:8px;font-family:sans-serif;-inkscape-font-specification:'sans-serif, Normal';font-variant-ligatures:normal;font-variant-caps:normal;font-variant-numeric:normal;font-variant-east-asian:normal;writing-mode:lr-tb;fill:#ffffff;fill-opacity:1;fill-rule:nonzero;stroke:none"
       id="text479"
       x="181.12923"
       y="297.17511"><tspan
         sodipodi:role="line"
         id="tspan3758">16 boom &amp;</tspan><tspan
         sodipodi:role="line"
         id="tspan3760">bust sust. </tspan><tspan
         sodipodi:role="line"
         id="tspan3762">unk.</tspan></text>
    <path
       d="m 247.44218,311.67279 h 45.23977 -0.11911 l 0.46778,-0.0156 0.45688,-0.075 0.43728,-0.13188 0.40241,-0.18824 0.36317,-0.23587 0.30944,-0.27945 0.24987,-0.31547 0.1816,-0.3422 0.1104,-0.36311 0.04,-0.37241 v -18.55531 l -0.04,-0.37182 -0.1104,-0.36311 -0.1816,-0.34278 -0.24987,-0.31547 -0.30944,-0.27887 -0.36317,-0.23645 -0.40241,-0.18592 -0.43728,-0.1342 -0.45688,-0.0743 -0.34867,-0.0162 h -45.23977 l 0.35228,0.0162 -0.46851,-0.0139 -0.46197,0.0453 -0.4489,0.10226 -0.42275,0.16093 -0.38279,0.21147 -0.33777,0.25854 -0.2782,0.29979 -0.2179,0.32884 -0.14818,0.3538 -0.0734,0.37009 -0.0116,0.1859 v 18.55532 l 0.0116,-0.18592 v 0.37415 l 0.0734,0.36777 0.14818,0.3538 0.2179,0.33174 0.2782,0.29689 0.33777,0.25912 0.38279,0.21089 0.42275,0.16093 0.4489,0.10457 0.46197,0.0453 z"
       style="fill:#50164a;fill-opacity:1;fill-rule:nonzero;stroke:#22002b;stroke-width:0.487215;stroke-linecap:round;stroke-linejoin:round;stroke-miterlimit:10;stroke-dasharray:none;stroke-opacity:1"
       id="path481" />
    <text
       xml:space="preserve"
       style="font-style:normal;font-variant:normal;font-weight:normal;font-stretch:normal;font-size:8px;font-family:sans-serif;-inkscape-font-specification:'sans-serif, Normal';font-variant-ligatures:normal;font-variant-caps:normal;font-variant-numeric:normal;font-variant-east-asian:normal;writing-mode:lr-tb;fill:#ffffff;fill-opacity:1;fill-rule:nonzero;stroke:none"
       id="text487"
       x="246.51898"
       y="298.18094"><tspan
         sodipodi:role="line"
         id="tspan3768">34 boom</tspan><tspan
         sodipodi:role="line"
         id="tspan3770">unk. &amp; bust</tspan></text>
    <path
       style="fill:none;stroke:#50164a;stroke-width:1.58178;stroke-miterlimit:0.4;stroke-dasharray:none;stroke-dashoffset:0;stroke-opacity:1"
       d="m 203.04184,248.01869 -0.26631,39.24374 v 0 0"
       id="path3925" />
    <path
       style="fill:none;stroke:#50164a;stroke-width:1.24972;stroke-miterlimit:0.4;stroke-dasharray:none;stroke-dashoffset:0;stroke-opacity:1"
       d="m 270.81945,282.60743 v -14.20924 l -69.15179,0.27325 -63.38915,-0.27325 -0.27441,14.20924"
       id="path3927" />
    <path
       d="m 267.21909,282.21191 3.602,6.234 3.602,-6.234 z"
       style="fill:#50164a;fill-opacity:1;fill-rule:nonzero;stroke:#50164a;stroke-width:0.75;stroke-linecap:round;stroke-linejoin:round;stroke-miterlimit:10;stroke-dasharray:none;stroke-opacity:1"
       id="path793-9" />
    <path
       d="m 199.17004,281.39204 3.602,6.234 3.602,-6.234 z"
       style="fill:#50164a;fill-opacity:1;fill-rule:nonzero;stroke:#50164a;stroke-width:0.75;stroke-linecap:round;stroke-linejoin:round;stroke-miterlimit:10;stroke-dasharray:none;stroke-opacity:1"
       id="path793-8" />
    <path
       d="m 134.40047,282.07527 3.602,6.234 3.602,-6.234 z"
       style="fill:#50164a;fill-opacity:1;fill-rule:nonzero;stroke:#50164a;stroke-width:0.75;stroke-linecap:round;stroke-linejoin:round;stroke-miterlimit:10;stroke-dasharray:none;stroke-opacity:1"
       id="path793-5" />
  </g>
</svg>
