<?xml version="1.0" encoding="UTF-8" standalone="no"?>
<!-- Created with Inkscape (http://www.inkscape.org/) -->

<svg
   version="1.1"
   id="svg639"
   width="110mm"
   height="117.73959mm"
   viewBox="0 0 415.74803 445.00001"
   sodipodi:docname="flowchart.svg"
   inkscape:version="1.2.2 (732a01da63, 2022-12-09)"
   inkscape:export-filename="flowchart.png"
   inkscape:export-xdpi="69.330002"
   inkscape:export-ydpi="69.330002"
   xmlns:inkscape="http://www.inkscape.org/namespaces/inkscape"
   xmlns:sodipodi="http://sodipodi.sourceforge.net/DTD/sodipodi-0.dtd"
   xmlns="http://www.w3.org/2000/svg"
   xmlns:svg="http://www.w3.org/2000/svg">
  <defs
     id="defs643" />
  <sodipodi:namedview
     id="namedview641"
     pagecolor="#ffffff"
     bordercolor="#000000"
     borderopacity="0.25"
     inkscape:showpageshadow="2"
     inkscape:pageopacity="0.0"
     inkscape:pagecheckerboard="0"
     inkscape:deskcolor="#d1d1d1"
     showgrid="false"
     inkscape:zoom="0.87733208"
     inkscape:cx="185.22063"
     inkscape:cy="222.83467"
     inkscape:window-width="958"
     inkscape:window-height="1181"
     inkscape:window-x="-8"
     inkscape:window-y="5"
     inkscape:window-maximized="0"
     inkscape:current-layer="g647"
     showguides="false"
     inkscape:document-units="mm">
    <inkscape:page
       x="0"
       y="0"
       id="page645"
       width="415.74805"
       height="445.00003" />
  </sodipodi:namedview>
  <g
     id="g647"
     inkscape:groupmode="layer"
     inkscape:label="Page 1"
     transform="matrix(1.3333333,0,0,1.3333333,0,1.44e-5)">
    <path
       d="m 64.06065,43.130981 h 64.5 l -0.16,-0.004 0.64,-0.023 0.629,-0.129 0.602,-0.227 0.559,-0.324 0.496,-0.406 0.425,-0.481 0.344,-0.543 0.254,-0.59 0.152,-0.625 0.051,-0.64 v -31.938 l -0.051,-0.64 -0.152,-0.625 -0.254,-0.59 -0.344,-0.543 -0.425,-0.481 -0.496,-0.406 -0.559,-0.324 -0.602,-0.227 -0.629,-0.129 -0.48,-0.027 h -64.5 l 0.48,0.027 -0.64,-0.023 -0.641,0.074 -0.617,0.18 -0.578,0.277 -0.531,0.364 -0.461,0.445 -0.387,0.515 -0.297,0.567 -0.203,0.609 -0.105,0.637 -0.012,0.32 v 31.938 l 0.012,-0.321 v 0.641 l 0.105,0.637 0.203,0.609 0.297,0.567 0.387,0.515 0.461,0.446 0.531,0.363 0.578,0.277 0.617,0.18 0.641,0.074 z"
       style="fill:#50164a;fill-opacity:1;fill-rule:nonzero;stroke:#50164a;stroke-width:0.75;stroke-linecap:round;stroke-linejoin:round;stroke-miterlimit:10;stroke-dasharray:none;stroke-opacity:1"
       id="path653"
       inkscape:export-filename="flowchart.png"
       inkscape:export-xdpi="152.58289"
       inkscape:export-ydpi="152.58289" />
    <text
       xml:space="preserve"
       style="font-variant:normal;font-weight:normal;font-size:8px;font-family:Arial;-inkscape-font-specification:ArialMT;writing-mode:lr-tb;fill:#ffffff;fill-opacity:1;fill-rule:nonzero;stroke:none"
       id="text659"
       x="71.404404"
       y="20.271544"><tspan
         x="71.404404 75.852402 80.3004 84.748398 86.964401 90.964401 95.412399 102.0764 106.5244 108.3004 110.0764 114.5244 118.9724"
         y="20.271544"
         sodipodi:role="line"
         id="tspan655">448 compiled </tspan><tspan
         x="79.19072 81.406723 83.182709 89.84671 94.294724 98.294724 102.74272 105.40672 107.18272 111.63072"
         y="31.794981"
         sodipodi:role="line"
         id="tspan657">timeseries</tspan></text>
    <path
       d="m 56.72465,115.13098 h 79.172 l -0.16,-0.004 0.64,-0.023 0.629,-0.129 0.602,-0.227 0.558,-0.324 0.497,-0.406 0.425,-0.481 0.344,-0.543 0.254,-0.59 0.152,-0.625 0.051,-0.64 V 79.200981 l -0.051,-0.64 -0.152,-0.625 -0.254,-0.59 -0.344,-0.543 -0.425,-0.481 -0.497,-0.406 -0.558,-0.324 -0.602,-0.227 -0.629,-0.129 -0.48,-0.027 h -79.172 l 0.481,0.027 -0.641,-0.023 -0.641,0.074 -0.617,0.18 -0.578,0.277 -0.531,0.364 -0.461,0.445 -0.387,0.515 -0.297,0.567 -0.203,0.609 -0.105,0.637 -0.012,0.32 v 31.937999 l 0.012,-0.321 v 0.641 l 0.105,0.637 0.203,0.609 0.297,0.567 0.387,0.515 0.461,0.446 0.531,0.363 0.578,0.277 0.617,0.18 0.641,0.074 z"
       style="fill:#50164a;fill-opacity:1;fill-rule:nonzero;stroke:#50164a;stroke-width:0.75;stroke-linecap:round;stroke-linejoin:round;stroke-miterlimit:10;stroke-dasharray:none;stroke-opacity:1"
       id="path661" />
    <text
       xml:space="preserve"
       style="font-variant:normal;font-weight:normal;font-size:8px;font-family:Arial;-inkscape-font-specification:ArialMT;writing-mode:lr-tb;fill:#ffffff;fill-opacity:1;fill-rule:nonzero;stroke:none"
       id="text667"
       x="64.068466"
       y="92.271545"><tspan
         x="64.068466 68.516464 72.964462 77.41246 79.628464 86.292465 90.740463 92.956467 95.17247 96.948471 101.39647 105.39647 107.17247 111.62047 115.62047 117.39647 121.84447 126.29247"
         y="92.271545"
         sodipodi:role="line"
         id="tspan663">192 met inclusion </tspan><tspan
         x="85.413361 89.413361 92.077362 93.853363 96.069366 100.51736 103.18137 104.95737"
         y="103.79498"
         sodipodi:role="line"
         id="tspan665">criteria</tspan></text>
    <path
       d="m 166.17365,89.935981 h 130.274 l -0.25,-0.004 0.992,-0.039 0.969,-0.2 0.925,-0.351 0.86,-0.496 0.765,-0.625 0.657,-0.742 0.527,-0.836 0.391,-0.91 0.238,-0.961 0.078,-0.989 v -49.226 l -0.078,-0.989 -0.238,-0.96 -0.391,-0.911 -0.527,-0.836 -0.657,-0.742 -0.765,-0.625 -0.86,-0.496 -0.925,-0.351 -0.969,-0.2 -0.742,-0.043 h -130.274 l 0.742,0.043 -0.988,-0.039 -0.984,0.121 -0.949,0.274 -0.895,0.426 -0.816,0.562 -0.715,0.688 -0.594,0.789 -0.461,0.879 -0.312,0.937 -0.161,0.977 -0.019,0.496 v 49.226 l 0.019,-0.496 v 0.992 l 0.161,0.977 0.312,0.937 0.461,0.879 0.594,0.789 0.715,0.688 0.816,0.562 0.895,0.426 0.949,0.274 0.984,0.121 z"
       style="fill:#50164a;fill-opacity:1;fill-rule:nonzero;stroke:#50164a;stroke-width:0.75;stroke-linecap:round;stroke-linejoin:round;stroke-miterlimit:10;stroke-dasharray:none;stroke-opacity:1"
       id="path669" />
    <text
       xml:space="preserve"
       style="font-variant:normal;font-weight:normal;font-size:6px;font-family:Arial;-inkscape-font-specification:ArialMT;writing-mode:lr-tb;fill:#ffffff;fill-opacity:1;fill-rule:nonzero;stroke:none"
       id="text681"
       x="171.36143"
       y="44.037167"><tspan
         x="171.36143 174.69743 178.03346 181.36943 183.03145 186.36745 189.36745 192.36745 193.69945 197.03545 200.37144 203.70744 207.04344"
         y="44.037167"
         sodipodi:role="line"
         id="tspan671">256 excluded:</tspan><tspan
         x="171.36143 173.35945 175.02144 178.35744 181.69344 185.02943 186.69145 188.35344 191.35344 194.68944 198.02544 200.02345 203.02345 204.68544 207.68544 211.02144 213.01945 216.01945 219.35545 222.35545 225.69145 229.02745 230.68944 234.18745 235.84944 239.18544 242.52144 244.18346 247.18344 250.51944 253.85544 255.85342 258.85342 260.51541 263.85141 265.84943"
         y="52.677792"
         sodipodi:role="line"
         id="tspan673">- 191: years surveyed &lt; 10 years or </tspan><tspan
         x="173.02345 176.52144 178.18346 181.51945 183.18144 186.18144 189.51744 192.85344 194.85146 197.85146 199.51344 200.84544 202.50743 204.16945 205.50145 208.83745 212.17345 215.50945 218.84544 221.84544 223.17744 224.83943 227.83943 229.50145 232.99944 234.66145"
         y="61.318417"
         sodipodi:role="line"
         id="tspan675">&lt; 8 years if longevity &lt; 1</tspan><tspan
         x="171.36143 173.35945 175.02144 178.35744 181.69344 185.02943 186.69145 188.35344 191.68944 195.02544 196.68745 199.68745 203.02345 206.35945 209.35945 212.69545 215.69545 219.03145 220.69344 222.02544 225.02544 228.36143 230.02345 233.02345 236.35945 239.69545 241.69344 244.69344 246.35544 249.85342 251.51541 254.85141 258.18741 259.84943 265.18341 266.84543 269.84543 273.18143 278.17941 281.51541 282.84741 286.18341 287.84543"
         y="69.959045"
         sodipodi:role="line"
         id="tspan677">- 140: 10 consecutive years &lt; 75 % complete</tspan><tspan
         x="171.36143 173.35945 175.02144 178.35744 181.69344 183.35545 185.01744 188.35344 191.68944 193.68745 196.68745 200.02345 203.02345"
         y="78.595764"
         sodipodi:role="line"
         id="tspan679">- 10: harvest</tspan></text>
    <path
       d="m 40.89665,181.37298 h 110.828 l -0.113,-0.004 0.457,-0.019 0.445,-0.09 0.43,-0.164 0.394,-0.227 0.356,-0.289 0.301,-0.344 0.246,-0.386 0.179,-0.418 0.11,-0.446 0.035,-0.453 v -22.726 l -0.035,-0.453 -0.11,-0.446 -0.179,-0.418 -0.246,-0.386 -0.301,-0.344 -0.356,-0.289 -0.394,-0.227 -0.43,-0.164 -0.445,-0.09 -0.344,-0.023 h -110.828 l 0.344,0.023 -0.457,-0.019 -0.453,0.054 -0.442,0.129 -0.414,0.196 -0.375,0.258 -0.328,0.316 -0.277,0.367 -0.211,0.402 -0.145,0.434 -0.074,0.453 -0.008,0.227 v 22.726 l 0.008,-0.23 v 0.457 l 0.074,0.453 0.145,0.434 0.211,0.402 0.277,0.367 0.328,0.317 0.375,0.257 0.414,0.196 0.442,0.129 0.453,0.054 z"
       style="fill:#50164a;fill-opacity:1;fill-rule:nonzero;stroke:#50164a;stroke-width:0.75;stroke-linecap:round;stroke-linejoin:round;stroke-miterlimit:10;stroke-dasharray:none;stroke-opacity:1"
       id="path683" />
    <text
       xml:space="preserve"
       style="font-variant:normal;font-weight:normal;font-size:8px;font-family:Arial;-inkscape-font-specification:ArialMT;writing-mode:lr-tb;fill:#ffffff;fill-opacity:1;fill-rule:nonzero;stroke:none"
       id="text687"
       x="49.396587"
       y="170.03326"><tspan
         x="49.396587 53.844589 58.292587 62.740601 64.956589 67.62059 72.068588 76.516602 78.292587 84.956589 89.404587 91.62059 95.62059 100.06859 101.84459 104.06059 106.2766 110.2766 112.4926 116.9406 121.3886 123.6046 128.0526 132.0526 134.2686 138.7166"
         y="170.03326"
         sodipodi:role="line"
         id="tspan685">162 regime shifts detected</tspan></text>
    <path
       d="m 184.68965,148.97498 h 54.242 -0.141 l 0.571,-0.024 0.562,-0.117 0.535,-0.203 0.497,-0.285 0.445,-0.363 0.379,-0.43 0.308,-0.485 0.223,-0.527 0.137,-0.555 0.047,-0.57 v -28.492 l -0.047,-0.57 -0.137,-0.555 -0.223,-0.527 -0.308,-0.485 -0.379,-0.429 -0.445,-0.364 -0.497,-0.285 -0.535,-0.203 -0.562,-0.117 -0.43,-0.024 h -54.242 l 0.43,0.024 -0.575,-0.024 -0.57,0.071 -0.551,0.16 -0.515,0.246 -0.473,0.324 -0.414,0.399 -0.344,0.457 -0.265,0.507 -0.18,0.543 -0.094,0.567 -0.012,0.285 v 28.492 l 0.012,-0.289 v 0.574 l 0.094,0.567 0.18,0.543 0.265,0.507 0.344,0.457 0.414,0.399 0.473,0.324 0.515,0.246 0.551,0.16 0.57,0.071 z"
       style="fill:#50164a;fill-opacity:1;fill-rule:nonzero;stroke:#50164a;stroke-width:0.75;stroke-linecap:round;stroke-linejoin:round;stroke-miterlimit:10;stroke-dasharray:none;stroke-opacity:1"
       id="path689" />
    <text
       xml:space="preserve"
       style="font-variant:normal;font-weight:normal;font-size:6px;font-family:Arial;-inkscape-font-specification:ArialMT;writing-mode:lr-tb;fill:#ffffff;fill-opacity:1;fill-rule:nonzero;stroke:none"
       id="text695"
       x="192.4669"
       y="128.99811"><tspan
         x="192.4669 195.8029 199.1389 200.80092 204.13692 207.47292 209.1349 211.13292 214.46892 217.80492 219.13692 224.1349"
         y="128.99811"
         sodipodi:role="line"
         id="tspan691">30 no regime</tspan><tspan
         x="192.4669 195.4669 198.8029 200.1349 201.79692 203.45891 206.45891 208.12093 211.45692 214.79292 216.45491 219.79091 222.79091 224.45293 227.78893"
         y="137.63873"
         sodipodi:role="line"
         id="tspan693">shifts detected</tspan></text>
    <path
       d="m 7.348501,255.72041 h 48.924308 l -0.191588,-0.003 0.766353,-0.0288 0.75153,-0.1349 0.716383,-0.24105 0.661763,-0.34056 0.596039,-0.43107 0.506281,-0.51086 0.408171,-0.57501 0.300801,-0.62685 0.184186,-0.66222 0.06111,-0.67785 v -33.85673 l -0.06111,-0.67785 -0.184186,-0.66221 -0.300801,-0.62685 -0.408171,-0.57502 -0.506281,-0.51086 -0.596039,-0.43024 -0.661763,-0.34139 -0.716383,-0.24104 -0.75153,-0.1349 -0.574765,-0.032 H 7.348501 l 0.574755,0.032 -0.766343,-0.0288 -0.762653,0.0839 -0.733966,0.18922 -0.694149,0.29285 -0.629366,0.38581 -0.55255,0.47219 -0.459072,0.54294 -0.358192,0.60382 -0.242488,0.64577 -0.123105,0.67209 -0.0138,0.34056 v 33.85631 l 0.0138,-0.34057 v 0.68115 l 0.123105,0.67208 0.242488,0.64578 0.358192,0.60381 0.459072,0.54295 0.55255,0.473 0.629366,0.385 0.694149,0.29285 0.733966,0.1892 0.762653,0.0839 z"
       style="fill:#50164a;fill-opacity:1;fill-rule:nonzero;stroke:#50164a;stroke-width:0.65443;stroke-linecap:round;stroke-linejoin:round;stroke-miterlimit:10;stroke-dasharray:none;stroke-opacity:1"
       id="path697" />
    <text
       xml:space="preserve"
       style="font-variant:normal;font-weight:normal;font-size:8px;font-family:Arial;-inkscape-font-specification:ArialMT;writing-mode:lr-tb;fill:#ffffff;fill-opacity:1;fill-rule:nonzero;stroke:none"
       id="text705"
       x="26.24815"
       y="230.51373"><tspan
         x="26.24815 30.696148 35.144161"
         y="230.51373"
         sodipodi:role="line"
         id="tspan699">25 </tspan><tspan
         x="11.576284 16.024281 20.024288 22.240276 26.688274 31.136288 32.912289 34.688274 38.688274 43.136288 47.584286"
         y="242.03326"
         sodipodi:role="line"
         id="tspan701">established</tspan><tspan
         x="30.701275"
         y="253.5528"
         id="tspan703"
         style="fill:#ffffff"> </tspan></text>
    <path
       d="m 74.628824,256.7751 h 45.680786 l -0.19897,-0.003 0.79204,-0.0295 0.78051,-0.13824 0.74398,-0.24698 0.69111,-0.34897 0.61518,-0.4417 0.52963,-0.52347 0.4239,-0.58921 0.31239,-0.64231 0.19128,-0.67856 0.0635,-0.69458 v -34.69179 l -0.0635,-0.69458 -0.19128,-0.67855 -0.31239,-0.64232 -0.4239,-0.58921 -0.52963,-0.52347 -0.61518,-0.44085 -0.69111,-0.34982 -0.74398,-0.24698 -0.78051,-0.13824 -0.59307,-0.0329 H 74.628824 l 0.596917,0.0329 -0.79589,-0.0295 -0.788189,0.0859 -0.766095,0.19388 -0.717067,0.30008 -0.657468,0.39534 -0.570003,0.48384 -0.480608,0.55634 -0.368141,0.61871 -0.251841,0.66171 -0.127841,0.68867 -0.01824,0.34897 v 34.69179 l 0.01824,-0.34897 v 0.69795 l 0.127841,0.68866 0.251841,0.66171 0.368141,0.61871 0.480608,0.55634 0.570003,0.48469 0.657468,0.3945 0.717067,0.30008 0.766095,0.19387 0.788189,0.0859 z"
       style="fill:#50164a;fill-opacity:1;fill-rule:nonzero;stroke:#50164a;stroke-width:0.675101;stroke-linecap:round;stroke-linejoin:round;stroke-miterlimit:10;stroke-dasharray:none;stroke-opacity:1"
       id="path707" />
    <text
       xml:space="preserve"
       style="font-variant:normal;font-weight:normal;font-size:8px;font-family:Arial;-inkscape-font-specification:ArialMT;writing-mode:lr-tb;fill:#ffffff;fill-opacity:1;fill-rule:nonzero;stroke:none"
       id="text715"
       x="90.748154"
       y="230.51373"><tspan
         x="90.748154 95.196152 99.64415"
         y="230.51373"
         sodipodi:role="line"
         id="tspan709">35 </tspan><tspan
         x="78.744247 83.192245 87.192245 91.640244 94.304237 98.304237 102.75224 107.20026 111.64825"
         y="242.03326"
         sodipodi:role="line"
         id="tspan711">overshoot</tspan><tspan
         x="95.201279"
         y="253.5528"
         id="tspan713"
         style="fill:#ffffff"> </tspan></text>
    <path
       d="m 139.31943,264.97778 h 57.304 l -0.207,-0.004 0.825,-0.035 0.812,-0.164 0.773,-0.293 0.719,-0.414 0.641,-0.524 0.551,-0.621 0.441,-0.699 0.324,-0.762 0.199,-0.805 0.067,-0.824 v -41.156 l -0.067,-0.824 -0.199,-0.805 -0.324,-0.762 -0.441,-0.699 -0.551,-0.621 -0.641,-0.523 -0.719,-0.415 -0.773,-0.293 -0.812,-0.164 -0.618,-0.039 h -57.304 l 0.621,0.039 -0.828,-0.035 -0.821,0.102 -0.797,0.23 -0.746,0.356 -0.683,0.469 -0.594,0.574 -0.5,0.66 -0.383,0.734 -0.262,0.785 -0.132,0.817 -0.02,0.414 v 41.156 l 0.02,-0.414 v 0.828 l 0.132,0.817 0.262,0.785 0.383,0.734 0.5,0.66 0.594,0.575 0.683,0.468 0.746,0.356 0.797,0.23 0.821,0.102 z"
       style="fill:#50164a;fill-opacity:1;fill-rule:nonzero;stroke:#50164a;stroke-width:0.75;stroke-linecap:round;stroke-linejoin:round;stroke-miterlimit:10;stroke-dasharray:none;stroke-opacity:1"
       id="path717" />
    <text
       xml:space="preserve"
       style="font-variant:normal;font-weight:normal;font-size:8px;font-family:Arial;-inkscape-font-specification:ArialMT;writing-mode:lr-tb;fill:#ffffff;fill-opacity:1;fill-rule:nonzero;stroke:none"
       id="text725"
       x="149.29176"
       y="230.59854"><tspan
         x="149.29176 153.73976 158.18776 162.63576 164.85176 168.85176 173.29976 179.96376 184.41176"
         y="230.59854"
         sodipodi:role="line"
         id="tspan719">102 some </tspan><tspan
         x="146.18239 150.63039 154.63039 156.40639 160.85439 165.30238 169.75038 173.75038 178.19838 180.41438 182.63039 187.07838"
         y="242.11807"
         sodipodi:role="line"
         id="tspan721">evidence for</tspan><tspan
         x="145.51442 149.96242 154.41042 158.85841 165.52242 167.73842 173.06642 175.28242 179.73042 184.17842 188.17842"
         y="253.6376"
         sodipodi:role="line"
         id="tspan723">boom &amp; bust</tspan></text>
    <path
       d="m 40.78043,331.21578 h 53.382 l -0.16,-0.004 0.641,-0.023 0.629,-0.129 0.601,-0.227 0.559,-0.324 0.496,-0.406 0.426,-0.481 0.344,-0.543 0.253,-0.59 0.153,-0.625 0.051,-0.64 v -31.938 l -0.051,-0.64 -0.153,-0.625 -0.253,-0.59 -0.344,-0.543 -0.426,-0.481 -0.496,-0.406 -0.559,-0.324 -0.601,-0.227 -0.629,-0.129 -0.481,-0.027 h -53.382 l 0.48,0.027 -0.641,-0.023 -0.64,0.074 -0.617,0.18 -0.578,0.277 -0.532,0.364 -0.461,0.445 -0.386,0.515 -0.297,0.567 -0.203,0.609 -0.106,0.637 -0.012,0.32 v 31.938 l 0.012,-0.321 v 0.641 l 0.106,0.637 0.203,0.609 0.297,0.567 0.386,0.515 0.461,0.446 0.532,0.363 0.578,0.277 0.617,0.18 0.64,0.074 z"
       style="fill:#50164a;fill-opacity:1;fill-rule:nonzero;stroke:#50164a;stroke-width:0.75;stroke-linecap:round;stroke-linejoin:round;stroke-miterlimit:10;stroke-dasharray:none;stroke-opacity:1"
       id="path739" />
    <text
       xml:space="preserve"
       style="font-variant:normal;font-weight:normal;font-size:8px;font-family:Arial;-inkscape-font-specification:ArialMT;writing-mode:lr-tb;fill:#ffffff;fill-opacity:1;fill-rule:nonzero;stroke:none"
       id="text745"
       x="48.127682"
       y="308.35635"><tspan
         x="48.127682 52.57568 57.023682 59.239685 63.687683 68.135681 72.583679 79.247681 81.463684"
         y="308.35635"
         sodipodi:role="line"
         id="tspan741">37 boom &amp;</tspan><tspan
         x="59.908936 64.356934 68.804932 72.804932"
         y="319.87979"
         sodipodi:role="line"
         id="tspan743">bust</tspan></text>
    <path
       d="m 110.0812,331.25959 h 51.58115 l -0.12453,-0.004 0.49811,-0.023 0.48955,-0.12927 0.46854,-0.22751 0.4343,-0.32471 0.38603,-0.40688 0.33156,-0.48206 0.26774,-0.54419 0.19769,-0.5913 0.11829,-0.62637 0.0397,-0.64141 v -32.00808 l -0.0397,-0.64141 -0.11829,-0.62637 -0.19769,-0.5913 -0.26774,-0.54419 -0.33156,-0.48206 -0.38603,-0.40688 -0.4343,-0.32471 -0.46854,-0.22751 -0.48955,-0.12927 -0.37358,-0.027 H 110.0812 l 0.37436,0.027 -0.49889,-0.023 -0.49811,0.0742 -0.48099,0.18039 -0.44986,0.27761 -0.41328,0.36479 -0.35879,0.44598 -0.30121,0.51613 -0.23115,0.56825 -0.158,0.61033 -0.0817,0.6384 -0.009,0.32071 v 32.00808 l 0.009,-0.3217 v 0.64241 l 0.0817,0.6384 0.158,0.61033 0.23115,0.56825 0.30121,0.51613 0.35879,0.44698 0.41328,0.36379 0.44986,0.27761 0.48099,0.18039 0.49811,0.0742 z"
       style="fill:#50164a;fill-opacity:1;fill-rule:nonzero;stroke:#50164a;stroke-width:0.662386;stroke-linecap:round;stroke-linejoin:round;stroke-miterlimit:10;stroke-dasharray:none;stroke-opacity:1"
       id="path747" />
    <text
       xml:space="preserve"
       style="font-variant:normal;font-weight:normal;font-size:8px;font-family:Arial;-inkscape-font-specification:ArialMT;writing-mode:lr-tb;fill:#ffffff;fill-opacity:1;fill-rule:nonzero;stroke:none"
       id="text753"
       x="117.12769"
       y="308.35635"><tspan
         x="117.12769 121.57568 126.0237 128.2397 132.6877 137.1357 141.58369 148.2477 150.4637"
         y="308.35635"
         sodipodi:role="line"
         id="tspan749">28 boom &amp;</tspan><tspan
         x="110.68237 115.13037 119.57837 123.57838 125.79439 128.01039 132.01039 136.45839 140.45839 142.67439 144.8904 147.1064 151.5544 156.0024"
         y="319.87979"
         sodipodi:role="line"
         id="tspan751">bust sust. unk.</tspan></text>
    <path
       d="m 177.34399,331.25722 h 49.17378 l -0.12948,-0.004 0.50845,-0.023 0.49662,-0.12926 0.4753,-0.22748 0.4374,-0.32467 0.39477,-0.40685 0.33635,-0.482 0.27159,-0.54413 0.19738,-0.59122 0.12002,-0.62629 0.0435,-0.64133 v -32.00432 l -0.0435,-0.64133 -0.12002,-0.62629 -0.19738,-0.59122 -0.27159,-0.54413 -0.33635,-0.482 -0.39477,-0.40685 -0.4374,-0.32467 -0.4753,-0.22748 -0.49662,-0.12926 -0.37897,-0.027 h -49.17378 l 0.38293,0.027 -0.50925,-0.023 -0.50214,0.0742 -0.48793,0.18037 -0.45952,0.27758 -0.41608,0.36475 -0.36714,0.44593 -0.30239,0.51607 -0.23686,0.56818 -0.16106,0.61026 -0.0797,0.63832 -0.0126,0.32066 v 32.00432 l 0.0126,-0.32167 v 0.64233 l 0.0797,0.63832 0.16106,0.61026 0.23686,0.56818 0.30239,0.51607 0.36714,0.44693 0.41608,0.36375 0.45952,0.27758 0.48793,0.18037 0.50214,0.0742 z"
       style="fill:#50164a;fill-opacity:1;fill-rule:nonzero;stroke:#50164a;stroke-width:0.667109;stroke-linecap:round;stroke-linejoin:round;stroke-miterlimit:10;stroke-dasharray:none;stroke-opacity:1"
       id="path755" />
    <text
       xml:space="preserve"
       style="font-variant:normal;font-weight:normal;font-size:8px;font-family:Arial;-inkscape-font-specification:ArialMT;writing-mode:lr-tb;fill:#ffffff;fill-opacity:1;fill-rule:nonzero;stroke:none"
       id="text761"
       x="177.17848"
       y="308.35635"><tspan
         x="177.17848 181.62648 186.07448 188.29048 192.73848 197.18648 197.18648 201.18648 203.40248 206.06648 210.51448 212.73048 217.17848 219.39449"
         y="308.35635"
         sodipodi:role="line"
         id="tspan757">35 unk. rate &amp;</tspan><tspan
         x="193.40895 197.85695 202.30495 206.30495"
         y="319.87979"
         sodipodi:role="line"
         id="tspan759">bust</tspan></text>
    <path
       d="m 242.44443,331.21578 h 64.054 l -0.164,-0.004 0.645,-0.023 0.629,-0.129 0.601,-0.227 0.555,-0.324 0.5,-0.406 0.426,-0.481 0.344,-0.543 0.25,-0.59 0.152,-0.625 0.055,-0.64 v -31.938 l -0.055,-0.64 -0.152,-0.625 -0.25,-0.59 -0.344,-0.543 -0.426,-0.481 -0.5,-0.406 -0.555,-0.324 -0.601,-0.227 -0.629,-0.129 -0.481,-0.027 h -64.054 l 0.484,0.027 -0.644,-0.023 -0.637,0.074 -0.617,0.18 -0.582,0.277 -0.528,0.364 -0.465,0.445 -0.382,0.515 -0.301,0.567 -0.203,0.609 -0.102,0.637 -0.016,0.32 v 31.938 l 0.016,-0.321 v 0.641 l 0.102,0.637 0.203,0.609 0.301,0.567 0.382,0.515 0.465,0.446 0.528,0.363 0.582,0.277 0.617,0.18 0.637,0.074 z"
       style="fill:#50164a;fill-opacity:1;fill-rule:nonzero;stroke:#50164a;stroke-width:0.75;stroke-linecap:round;stroke-linejoin:round;stroke-miterlimit:10;stroke-dasharray:none;stroke-opacity:1"
       id="path763" />
    <text
       xml:space="preserve"
       style="font-variant:normal;font-weight:normal;font-size:8px;font-family:Arial;-inkscape-font-specification:ArialMT;writing-mode:lr-tb;fill:#ffffff;fill-opacity:1;fill-rule:nonzero;stroke:none"
       id="text769"
       x="252.90112"
       y="308.35635"><tspan
         x="252.90112 257.34912 259.56512 264.01312 268.46112 272.46112 274.67712 277.34113 281.78912 284.00513 288.45312 290.66913"
         y="308.35635"
         sodipodi:role="line"
         id="tspan765">2 unk rate &amp;</tspan><tspan
         x="249.79175 254.23975 258.68774 262.68774 264.90375 267.11975 271.11975 275.56775 279.56775 281.78375 283.99976 286.21576 290.66376 295.11176"
         y="319.87979"
         sodipodi:role="line"
         id="tspan767">bust sust. unk.</tspan></text>
    <path
       d="m 96.31065,43.130981 v 32.078"
       style="fill:none;stroke:#50164a;stroke-width:0.975;stroke-linecap:round;stroke-linejoin:round;stroke-miterlimit:10;stroke-dasharray:none;stroke-opacity:1"
       id="path771" />
    <path
       d="m 92.70865,68.974981 3.602,6.234 3.602,-6.234 z"
       style="fill:#50164a;fill-opacity:1;fill-rule:nonzero;stroke:#50164a;stroke-width:0.75;stroke-linecap:round;stroke-linejoin:round;stroke-miterlimit:10;stroke-dasharray:none;stroke-opacity:1"
       id="path773" />
    <path
       d="M 158.51149,59.254781 H 96.53615"
       style="fill:none;stroke:#50164a;stroke-width:0.97425;stroke-linecap:round;stroke-linejoin:round;stroke-miterlimit:10;stroke-dasharray:none;stroke-opacity:1"
       id="path775" />
    <path
       d="m 153.82126,62.816821 6.17759,-3.69791 -6.28892,-3.50523 z"
       style="fill:#50164a;fill-opacity:1;fill-rule:nonzero;stroke:#50164a;stroke-width:0.75;stroke-linecap:round;stroke-linejoin:round;stroke-miterlimit:10;stroke-dasharray:none;stroke-opacity:1"
       id="path777" />
    <path
       d="m 96.31065,115.13098 v 37.836"
       style="fill:none;stroke:#50164a;stroke-width:0.975;stroke-linecap:round;stroke-linejoin:round;stroke-miterlimit:10;stroke-dasharray:none;stroke-opacity:1"
       id="path779" />
    <path
       d="m 92.70865,146.73298 3.602,6.234 3.602,-6.234 z"
       style="fill:#50164a;fill-opacity:1;fill-rule:nonzero;stroke:#50164a;stroke-width:0.75;stroke-linecap:round;stroke-linejoin:round;stroke-miterlimit:10;stroke-dasharray:none;stroke-opacity:1"
       id="path781" />
    <path
       d="m 174.31065,131.16998 h -77.316"
       style="fill:none;stroke:#50164a;stroke-width:0.975;stroke-linecap:round;stroke-linejoin:round;stroke-miterlimit:10;stroke-dasharray:none;stroke-opacity:1"
       id="path783" />
    <path
       d="m 181.04891,131.17223 -6.23319,-3.60341 -0.009,7.1998 z"
       style="fill:#50164a;fill-opacity:1;fill-rule:nonzero;stroke:#50164a;stroke-width:0.75;stroke-linecap:round;stroke-linejoin:round;stroke-miterlimit:10;stroke-dasharray:none;stroke-opacity:1"
       id="path785" />
    <path
       d="m 96.44982,181.23381 v 16.17416 H 31.845818 v 16.17818"
       style="fill:none;stroke:#50164a;stroke-width:0.921925;stroke-linecap:round;stroke-linejoin:round;stroke-miterlimit:10;stroke-dasharray:none;stroke-opacity:1"
       id="path787" />
    <path
       d="m 28.20865,207.21298 3.602,6.234 3.602,-6.234 z"
       style="fill:#50164a;fill-opacity:1;fill-rule:nonzero;stroke:#50164a;stroke-width:0.75;stroke-linecap:round;stroke-linejoin:round;stroke-miterlimit:10;stroke-dasharray:none;stroke-opacity:1"
       id="path789" />
    <path
       d="m 96.31065,181.1884 v 16.28716"
       style="fill:none;stroke:#000000;stroke-width:0.53445;stroke-linecap:round;stroke-linejoin:round;stroke-miterlimit:10;stroke-dasharray:none;stroke-opacity:1"
       id="path791" />
    <path
       d="m 96.31065,197.53993 v 14.9481"
       style="fill:none;stroke:#000000;stroke-width:0.99975;stroke-linecap:round;stroke-linejoin:round;stroke-miterlimit:10;stroke-dasharray:none;stroke-opacity:1"
       id="path791-1" />
    <path
       d="m 92.70865,207.21298 3.602,6.234 3.602,-6.234 z"
       style="fill:#50164a;fill-opacity:1;fill-rule:nonzero;stroke:#50164a;stroke-width:0.75;stroke-linecap:round;stroke-linejoin:round;stroke-miterlimit:10;stroke-dasharray:none;stroke-opacity:1"
       id="path793" />
    <path
       d="m 96.20131,181.26364 v 16.14433 h 71.78018 v 16.14835"
       style="fill:none;stroke:#50164a;stroke-width:0.981;stroke-linecap:round;stroke-linejoin:round;stroke-miterlimit:10;stroke-dasharray:none;stroke-opacity:1"
       id="path795" />
    <path
       d="m 164.36943,207.29778 3.602,6.234 3.602,-6.234 z"
       style="fill:#50164a;fill-opacity:1;fill-rule:nonzero;stroke:#50164a;stroke-width:0.75;stroke-linecap:round;stroke-linejoin:round;stroke-miterlimit:10;stroke-dasharray:none;stroke-opacity:1"
       id="path797" />
    <path
       d="M 167.83774,265.11147 V 278.1338 H 67.45185 v 13.02629"
       style="fill:none;stroke:#50164a;stroke-width:1.01738;stroke-linecap:round;stroke-linejoin:round;stroke-miterlimit:10;stroke-dasharray:none;stroke-opacity:1"
       id="path807" />
    <path
       d="m 63.86943,285.05978 3.602,6.234 3.602,-6.234 z"
       style="fill:#50164a;fill-opacity:1;fill-rule:nonzero;stroke:#50164a;stroke-width:0.75;stroke-linecap:round;stroke-linejoin:round;stroke-miterlimit:10;stroke-dasharray:none;stroke-opacity:1"
       id="path809" />
    <path
       d="M 167.85309,265.09612 V 278.1338 H 136.4176 v 13.04164"
       style="fill:none;stroke:#50164a;stroke-width:0.986673;stroke-linecap:round;stroke-linejoin:round;stroke-miterlimit:10;stroke-dasharray:none;stroke-opacity:1"
       id="path811" />
    <path
       d="m 132.86943,285.05978 3.602,6.234 3.602,-6.234 z"
       style="fill:#50164a;fill-opacity:1;fill-rule:nonzero;stroke:#50164a;stroke-width:0.75;stroke-linecap:round;stroke-linejoin:round;stroke-miterlimit:10;stroke-dasharray:none;stroke-opacity:1"
       id="path813" />
    <path
       d="m 167.92953,265.10549 v 13.02831 h 32.66513 v 13.03227"
       style="fill:none;stroke:#000000;stroke-width:1.00542;stroke-linecap:round;stroke-linejoin:round;stroke-miterlimit:10;stroke-dasharray:none;stroke-opacity:1"
       id="path815" />
    <path
       d="m 197.19982,285.05978 3.602,6.234 3.602,-6.234 z"
       style="fill:#50164a;fill-opacity:1;fill-rule:nonzero;stroke:#50164a;stroke-width:0.75;stroke-linecap:round;stroke-linejoin:round;stroke-miterlimit:10;stroke-dasharray:none;stroke-opacity:1"
       id="path817" />
    <path
       d="m 168.12002,265.12637 v 13.00743 h 106.47259 v 13.01139"
       style="fill:none;stroke:#50164a;stroke-width:1.04717;stroke-linecap:round;stroke-linejoin:round;stroke-miterlimit:10;stroke-dasharray:none;stroke-opacity:1"
       id="path819" />
    <path
       d="m 270.86943,285.05978 3.602,6.234 3.602,-6.234 z"
       style="fill:#50164a;fill-opacity:1;fill-rule:nonzero;stroke:#50164a;stroke-width:0.75;stroke-linecap:round;stroke-linejoin:round;stroke-miterlimit:10;stroke-dasharray:none;stroke-opacity:1"
       id="path821" />
  </g>
</svg>
