<?xml version="1.0" encoding="UTF-8" standalone="no"?>
<!-- Created with Inkscape (http://www.inkscape.org/) -->

<svg
   version="1.1"
   id="svg639"
   width="110mm"
   height="117.73959mm"
   viewBox="0 0 415.74803 445.00001"
   sodipodi:docname="flowchart.svg"
   inkscape:version="1.2.2 (732a01da63, 2022-12-09)"
   inkscape:export-filename="flowchart.png"
   inkscape:export-xdpi="69.330002"
   inkscape:export-ydpi="69.330002"
   xmlns:inkscape="http://www.inkscape.org/namespaces/inkscape"
   xmlns:sodipodi="http://sodipodi.sourceforge.net/DTD/sodipodi-0.dtd"
   xmlns="http://www.w3.org/2000/svg"
   xmlns:svg="http://www.w3.org/2000/svg">
  <defs
     id="defs643">
    <rect
       x="281.53536"
       y="32.484849"
       width="6.2690059"
       height="23.936204"
       id="rect3264" />
  </defs>
  <sodipodi:namedview
     id="namedview641"
     pagecolor="#ffffff"
     bordercolor="#000000"
     borderopacity="0.25"
     inkscape:showpageshadow="2"
     inkscape:pageopacity="0.0"
     inkscape:pagecheckerboard="0"
     inkscape:deskcolor="#d1d1d1"
     showgrid="false"
     inkscape:zoom="1.7908021"
     inkscape:cx="306.00812"
     inkscape:cy="218.61712"
     inkscape:window-width="1920"
     inkscape:window-height="991"
     inkscape:window-x="1591"
     inkscape:window-y="-9"
     inkscape:window-maximized="1"
     inkscape:current-layer="g647"
     showguides="false"
     inkscape:document-units="mm">
    <inkscape:page
       x="0"
       y="0"
       id="page645"
       width="415.74805"
       height="445.00003"
       inkscape:export-filename="flowchart.png"
       inkscape:export-xdpi="429.59"
       inkscape:export-ydpi="429.59" />
  </sodipodi:namedview>
  <g
     id="g647"
     inkscape:groupmode="layer"
     inkscape:label="Page 1"
     transform="matrix(1.3333333,0,0,1.3333333,0,1.44e-5)">
    <path
       d="m 64.06065,43.130981 h 64.5 l -0.16,-0.004 0.64,-0.023 0.629,-0.129 0.602,-0.227 0.559,-0.324 0.496,-0.406 0.425,-0.481 0.344,-0.543 0.254,-0.59 0.152,-0.625 0.051,-0.64 v -31.938 l -0.051,-0.64 -0.152,-0.625 -0.254,-0.59 -0.344,-0.543 -0.425,-0.481 -0.496,-0.406 -0.559,-0.324 -0.602,-0.227 -0.629,-0.129 -0.48,-0.027 h -64.5 l 0.48,0.027 -0.64,-0.023 -0.641,0.074 -0.617,0.18 -0.578,0.277 -0.531,0.364 -0.461,0.445 -0.387,0.515 -0.297,0.567 -0.203,0.609 -0.105,0.637 -0.012,0.32 v 31.938 l 0.012,-0.321 v 0.641 l 0.105,0.637 0.203,0.609 0.297,0.567 0.387,0.515 0.461,0.446 0.531,0.363 0.578,0.277 0.617,0.18 0.641,0.074 z"
       style="fill:#4d4d4d;fill-opacity:1;fill-rule:nonzero;stroke:#000000;stroke-width:0.75;stroke-linecap:round;stroke-linejoin:round;stroke-miterlimit:10;stroke-dasharray:none;stroke-opacity:1"
       id="path653"
       inkscape:export-filename="flowchart.png"
       inkscape:export-xdpi="152.58289"
       inkscape:export-ydpi="152.58289" />
    <text
       xml:space="preserve"
       style="font-variant:normal;font-weight:normal;font-size:10.2587px;font-family:Arial;-inkscape-font-specification:ArialMT;writing-mode:lr-tb;fill:#ffffff;fill-opacity:1;fill-rule:nonzero;stroke:none;stroke-width:1.28234"
       id="text659"
       x="64.67482"
       y="19.443264"><tspan
         x="64.67482 70.378677 76.082542 81.7864 84.628075 89.757446 95.461304 104.00684 109.7107 111.98814 114.26559 119.96944 125.6733"
         y="19.443264"
         sodipodi:role="line"
         id="tspan655"
         style="stroke-width:1.28234">448 compiled </tspan><tspan
         x="74.659546 77.501228 79.778648 88.324181 94.028061 99.157433 104.8613 108.27746 110.55489 116.25876"
         y="34.220264"
         sodipodi:role="line"
         id="tspan657"
         style="stroke-width:1.28234">timeseries</tspan></text>
    <path
       d="m 56.72465,115.13098 h 79.172 l -0.16,-0.004 0.64,-0.023 0.629,-0.129 0.602,-0.227 0.558,-0.324 0.497,-0.406 0.425,-0.481 0.344,-0.543 0.254,-0.59 0.152,-0.625 0.051,-0.64 V 79.200981 l -0.051,-0.64 -0.152,-0.625 -0.254,-0.59 -0.344,-0.543 -0.425,-0.481 -0.497,-0.406 -0.558,-0.324 -0.602,-0.227 -0.629,-0.129 -0.48,-0.027 h -79.172 l 0.481,0.027 -0.641,-0.023 -0.641,0.074 -0.617,0.18 -0.578,0.277 -0.531,0.364 -0.461,0.445 -0.387,0.515 -0.297,0.567 -0.203,0.609 -0.105,0.637 -0.012,0.32 v 31.937999 l 0.012,-0.321 v 0.641 l 0.105,0.637 0.203,0.609 0.297,0.567 0.387,0.515 0.461,0.446 0.531,0.363 0.578,0.277 0.617,0.18 0.641,0.074 z"
       style="fill:#4d4d4d;fill-opacity:1;fill-rule:nonzero;stroke:#000000;stroke-width:0.75;stroke-linecap:round;stroke-linejoin:round;stroke-miterlimit:10;stroke-dasharray:none;stroke-opacity:1"
       id="path661" />
    <text
       xml:space="preserve"
       style="font-variant:normal;font-weight:normal;font-size:10.512px;font-family:Arial;-inkscape-font-specification:ArialMT;writing-mode:lr-tb;fill:#ffffff;fill-opacity:1;fill-rule:nonzero;stroke:none;stroke-width:1.314"
       id="text667"
       x="54.162384"
       y="91.35038"><tspan
         x="54.162384 60.007072 65.851768 71.696457 74.608292 83.364822 89.209518 92.121353 95.033195 97.366867 103.21156 108.46758 110.80125 116.64594 121.90196 124.23563 130.08032 135.92503"
         y="91.35038"
         sodipodi:role="line"
         id="tspan663"
         style="stroke-width:1.314">192 met inclusion </tspan><tspan
         x="82.209679 87.465698 90.966209 93.299881 96.211723 102.0564 105.55693 107.89059"
         y="106.49223"
         sodipodi:role="line"
         id="tspan665"
         style="stroke-width:1.314">criteria</tspan></text>
    <path
       d="m 166.23732,100.12467 h 130.14666 l -0.24976,-0.006 0.99103,-0.0549 0.96805,-0.281516 0.9241,-0.49406 0.85916,-0.698158 0.76425,-0.879737 0.65636,-1.044423 0.52648,-1.176736 0.39062,-1.280897 0.23777,-1.352682 0.0779,-1.392095 v -69.28946 l -0.0779,-1.392095 -0.23777,-1.351276 -0.39062,-1.282304 -0.52648,-1.176735 -0.65636,-1.044424 -0.76425,-0.879736 -0.85916,-0.698159 -0.9241,-0.49406 -0.96805,-0.281516 -0.74127,-0.06053 H 166.23732 l 0.74128,0.06053 -0.98703,-0.0549 -0.98304,0.170318 -0.94807,0.385676 -0.89413,0.599628 -0.81521,0.791059 -0.7143,0.968415 -0.59341,1.110579 -0.46056,1.237261 -0.31169,1.318902 -0.16084,1.375204 -0.019,0.698159 v 69.289459 l 0.019,-0.698159 v 1.396318 l 0.16084,1.375204 0.31169,1.318902 0.46056,1.237261 0.59341,1.110579 0.7143,0.968415 0.81521,0.791059 0.89413,0.599628 0.94807,0.385676 0.98304,0.170316 z"
       style="fill:#4d4d4d;fill-opacity:1;fill-rule:nonzero;stroke:#000000;stroke-width:0.889375;stroke-linecap:round;stroke-linejoin:round;stroke-miterlimit:10;stroke-dasharray:none;stroke-opacity:1"
       id="path669" />
    <path
       d="m 40.89665,181.37298 h 110.828 l -0.113,-0.004 0.457,-0.019 0.445,-0.09 0.43,-0.164 0.394,-0.227 0.356,-0.289 0.301,-0.344 0.246,-0.386 0.179,-0.418 0.11,-0.446 0.035,-0.453 v -22.726 l -0.035,-0.453 -0.11,-0.446 -0.179,-0.418 -0.246,-0.386 -0.301,-0.344 -0.356,-0.289 -0.394,-0.227 -0.43,-0.164 -0.445,-0.09 -0.344,-0.023 h -110.828 l 0.344,0.023 -0.457,-0.019 -0.453,0.054 -0.442,0.129 -0.414,0.196 -0.375,0.258 -0.328,0.316 -0.277,0.367 -0.211,0.402 -0.145,0.434 -0.074,0.453 -0.008,0.227 v 22.726 l 0.008,-0.23 v 0.457 l 0.074,0.453 0.145,0.434 0.211,0.402 0.277,0.367 0.328,0.317 0.375,0.257 0.414,0.196 0.442,0.129 0.453,0.054 z"
       style="fill:#4d4d4d;fill-opacity:1;fill-rule:nonzero;stroke:#000000;stroke-width:0.75;stroke-linecap:round;stroke-linejoin:round;stroke-miterlimit:10;stroke-dasharray:none;stroke-opacity:1"
       id="path683" />
    <text
       xml:space="preserve"
       style="font-variant:normal;font-weight:normal;font-size:9.52425px;font-family:Arial;-inkscape-font-specification:ArialMT;writing-mode:lr-tb;fill:#ffffff;fill-opacity:1;fill-rule:nonzero;stroke:none;stroke-width:1.19053"
       id="text687"
       x="40.435677"
       y="170.42772"><tspan
         x="40.435677 45.731163 51.026646 56.322144 58.96035 62.131927 67.427406 72.722908 74.83728 82.770981 88.066467 90.704689 95.466812 100.7623 102.87668 105.5149 108.15314 112.91526 115.55347 120.84895 126.14445 128.78265 134.07814 138.84027 141.47849 146.77397"
         y="170.42772"
         sodipodi:role="line"
         id="tspan685"
         style="stroke-width:1.19053">162 regime shifts detected</tspan></text>
    <path
       d="m 184.68965,148.97498 h 54.242 -0.141 l 0.571,-0.024 0.562,-0.117 0.535,-0.203 0.497,-0.285 0.445,-0.363 0.379,-0.43 0.308,-0.485 0.223,-0.527 0.137,-0.555 0.047,-0.57 v -28.492 l -0.047,-0.57 -0.137,-0.555 -0.223,-0.527 -0.308,-0.485 -0.379,-0.429 -0.445,-0.364 -0.497,-0.285 -0.535,-0.203 -0.562,-0.117 -0.43,-0.024 h -54.242 l 0.43,0.024 -0.575,-0.024 -0.57,0.071 -0.551,0.16 -0.515,0.246 -0.473,0.324 -0.414,0.399 -0.344,0.457 -0.265,0.507 -0.18,0.543 -0.094,0.567 -0.012,0.285 v 28.492 l 0.012,-0.289 v 0.574 l 0.094,0.567 0.18,0.543 0.265,0.507 0.344,0.457 0.414,0.399 0.473,0.324 0.515,0.246 0.551,0.16 0.57,0.071 z"
       style="fill:#4d4d4d;fill-opacity:1;fill-rule:nonzero;stroke:#000000;stroke-width:0.75;stroke-linecap:round;stroke-linejoin:round;stroke-miterlimit:10;stroke-dasharray:none;stroke-opacity:1"
       id="path689" />
    <text
       xml:space="preserve"
       style="font-variant:normal;font-weight:normal;font-size:8.37803px;font-family:Arial;-inkscape-font-specification:ArialMT;writing-mode:lr-tb;fill:#ffffff;fill-opacity:1;fill-rule:nonzero;stroke:none;stroke-width:1.39634"
       id="text695"
       x="184.85522"
       y="128.12646"><tspan
         x="184.85522 189.51341 194.1716 196.49234 201.15053 205.80872 208.12941 210.91931 215.5775 220.23569 222.09561 229.07449"
         y="128.12646"
         sodipodi:role="line"
         id="tspan691"
         style="stroke-width:1.39634">30 no regime</tspan><tspan
         x="184.85522 189.04425 193.70244 195.56236 197.8831 200.2038 204.39281 206.71355 211.37173 216.02992 218.35062 223.0088 227.19781 229.51857 234.17674"
         y="140.19171"
         sodipodi:role="line"
         id="tspan693"
         style="stroke-width:1.39634">shifts detected</tspan></text>
    <path
       d="m 7.348501,255.72041 h 48.924308 l -0.191588,-0.003 0.766353,-0.0288 0.75153,-0.1349 0.716383,-0.24105 0.661763,-0.34056 0.596039,-0.43107 0.506281,-0.51086 0.408171,-0.57501 0.300801,-0.62685 0.184186,-0.66222 0.06111,-0.67785 v -33.85673 l -0.06111,-0.67785 -0.184186,-0.66221 -0.300801,-0.62685 -0.408171,-0.57502 -0.506281,-0.51086 -0.596039,-0.43024 -0.661763,-0.34139 -0.716383,-0.24104 -0.75153,-0.1349 -0.574765,-0.032 H 7.348501 l 0.574755,0.032 -0.766343,-0.0288 -0.762653,0.0839 -0.733966,0.18922 -0.694149,0.29285 -0.629366,0.38581 -0.55255,0.47219 -0.459072,0.54294 -0.358192,0.60382 -0.242488,0.64577 -0.123105,0.67209 -0.0138,0.34056 v 33.85631 l 0.0138,-0.34057 v 0.68115 l 0.123105,0.67208 0.242488,0.64578 0.358192,0.60381 0.459072,0.54295 0.55255,0.473 0.629366,0.385 0.694149,0.29285 0.733966,0.1892 0.762653,0.0839 z"
       style="fill:#d45500;fill-opacity:1;fill-rule:nonzero;stroke:#552200;stroke-width:0.65443;stroke-linecap:round;stroke-linejoin:round;stroke-miterlimit:10;stroke-dasharray:none;stroke-opacity:1"
       id="path697" />
    <text
       xml:space="preserve"
       style="font-variant:normal;font-weight:normal;font-size:10.3698px;font-family:Arial;-inkscape-font-specification:ArialMT;writing-mode:lr-tb;fill:#ffffff;fill-opacity:1;fill-rule:nonzero;stroke:none;stroke-width:1.29623"
       id="text705"
       x="24.644312"
       y="227.95297"><tspan
         x="24.644312 30.409941 36.175587"
         y="227.95297"
         sodipodi:role="line"
         id="tspan699"
         style="stroke-width:1.29623">25 </tspan><tspan
         x="5.626204 11.391829 16.576757 19.449188 25.214815 30.980463 33.282566 35.584652 40.769573 46.535221 52.300846"
         y="242.88492"
         sodipodi:role="line"
         id="tspan701"
         style="stroke-width:1.29623">established</tspan><tspan
         x="30.416586"
         y="257.81689"
         id="tspan703"
         style="fill:#ffffff;stroke-width:1.29623"> </tspan></text>
    <path
       d="m 74.628824,256.7751 h 45.680786 l -0.19897,-0.003 0.79204,-0.0295 0.78051,-0.13824 0.74398,-0.24698 0.69111,-0.34897 0.61518,-0.4417 0.52963,-0.52347 0.4239,-0.58921 0.31239,-0.64231 0.19128,-0.67856 0.0635,-0.69458 v -34.69179 l -0.0635,-0.69458 -0.19128,-0.67855 -0.31239,-0.64232 -0.4239,-0.58921 -0.52963,-0.52347 -0.61518,-0.44085 -0.69111,-0.34982 -0.74398,-0.24698 -0.78051,-0.13824 -0.59307,-0.0329 H 74.628824 l 0.596917,0.0329 -0.79589,-0.0295 -0.788189,0.0859 -0.766095,0.19388 -0.717067,0.30008 -0.657468,0.39534 -0.570003,0.48384 -0.480608,0.55634 -0.368141,0.61871 -0.251841,0.66171 -0.127841,0.68867 -0.01824,0.34897 v 34.69179 l 0.01824,-0.34897 v 0.69795 l 0.127841,0.68866 0.251841,0.66171 0.368141,0.61871 0.480608,0.55634 0.570003,0.48469 0.657468,0.3945 0.717067,0.30008 0.766095,0.19387 0.788189,0.0859 z"
       style="fill:#a02c2c;fill-opacity:1;fill-rule:nonzero;stroke:#550000;stroke-width:0.675101;stroke-linecap:round;stroke-linejoin:round;stroke-miterlimit:10;stroke-dasharray:none;stroke-opacity:1"
       id="path707" />
    <text
       xml:space="preserve"
       style="font-variant:normal;font-weight:normal;font-size:11.2586px;font-family:Arial;-inkscape-font-specification:ArialMT;writing-mode:lr-tb;fill:#ffffff;fill-opacity:1;fill-rule:nonzero;stroke:none;stroke-width:1.40733"
       id="text715"
       x="88.441483"
       y="226.99257"><tspan
         x="88.441483 94.701271 100.96107"
         y="226.99257"
         sodipodi:role="line"
         id="tspan709"
         style="stroke-width:1.40733">35 </tspan><tspan
         x="71.54805 77.807838 83.437149 89.696945 93.44606 99.075371 105.33517 111.59499 117.85477"
         y="243.20433"
         sodipodi:role="line"
         id="tspan711"
         style="stroke-width:1.40733">overshoot</tspan><tspan
         x="94.708488"
         y="259.41608"
         id="tspan713"
         style="fill:#ffffff;stroke-width:1.40733"> </tspan></text>
    <path
       d="m 139.31943,264.97778 h 57.304 l -0.207,-0.004 0.825,-0.035 0.812,-0.164 0.773,-0.293 0.719,-0.414 0.641,-0.524 0.551,-0.621 0.441,-0.699 0.324,-0.762 0.199,-0.805 0.067,-0.824 v -41.156 l -0.067,-0.824 -0.199,-0.805 -0.324,-0.762 -0.441,-0.699 -0.551,-0.621 -0.641,-0.523 -0.719,-0.415 -0.773,-0.293 -0.812,-0.164 -0.618,-0.039 h -57.304 l 0.621,0.039 -0.828,-0.035 -0.821,0.102 -0.797,0.23 -0.746,0.356 -0.683,0.469 -0.594,0.574 -0.5,0.66 -0.383,0.734 -0.262,0.785 -0.132,0.817 -0.02,0.414 v 41.156 l 0.02,-0.414 v 0.828 l 0.132,0.817 0.262,0.785 0.383,0.734 0.5,0.66 0.594,0.575 0.683,0.468 0.746,0.356 0.797,0.23 0.821,0.102 z"
       style="fill:#50164a;fill-opacity:1;fill-rule:nonzero;stroke:#22002b;stroke-width:0.75;stroke-linecap:round;stroke-linejoin:round;stroke-miterlimit:10;stroke-dasharray:none;stroke-opacity:1"
       id="path717" />
    <text
       xml:space="preserve"
       style="font-variant:normal;font-weight:normal;font-size:10.5712px;font-family:Arial;-inkscape-font-specification:ArialMT;writing-mode:lr-tb;fill:#ffffff;fill-opacity:1;fill-rule:nonzero;stroke:none;stroke-width:1.3214"
       id="text725"
       x="143.21785"
       y="227.79886"><tspan
         x="143.21785 149.09543 154.97301 160.85059 163.77881 169.06439 174.94197 183.74777 189.62535"
         y="227.79886"
         sodipodi:role="line"
         id="tspan719"
         style="stroke-width:1.3214">102 some </tspan><tspan
         x="139.10913 144.98671 150.27229 152.61909 158.49667 164.37425 170.25183 175.53743 181.41499 184.34322 187.27145 193.14902"
         y="243.02075"
         sodipodi:role="line"
         id="tspan721"
         style="stroke-width:1.3214">evidence for</tspan><tspan
         x="138.22647 144.10405 149.98163 155.85921 164.66501 167.59323 174.63364 177.56186 183.43944 189.31702 194.60262"
         y="258.24265"
         sodipodi:role="line"
         id="tspan723"
         style="stroke-width:1.3214">boom &amp; bust</tspan></text>
    <path
       d="m 40.78043,331.21578 h 53.382 l -0.16,-0.004 0.641,-0.023 0.629,-0.129 0.601,-0.227 0.559,-0.324 0.496,-0.406 0.426,-0.481 0.344,-0.543 0.253,-0.59 0.153,-0.625 0.051,-0.64 v -31.938 l -0.051,-0.64 -0.153,-0.625 -0.253,-0.59 -0.344,-0.543 -0.426,-0.481 -0.496,-0.406 -0.559,-0.324 -0.601,-0.227 -0.629,-0.129 -0.481,-0.027 h -53.382 l 0.48,0.027 -0.641,-0.023 -0.64,0.074 -0.617,0.18 -0.578,0.277 -0.532,0.364 -0.461,0.445 -0.386,0.515 -0.297,0.567 -0.203,0.609 -0.106,0.637 -0.012,0.32 v 31.938 l 0.012,-0.321 v 0.641 l 0.106,0.637 0.203,0.609 0.297,0.567 0.386,0.515 0.461,0.446 0.532,0.363 0.578,0.277 0.617,0.18 0.64,0.074 z"
       style="fill:#50164a;fill-opacity:1;fill-rule:nonzero;stroke:#22002b;stroke-width:0.75;stroke-linecap:round;stroke-linejoin:round;stroke-miterlimit:10;stroke-dasharray:none;stroke-opacity:1"
       id="path739" />
    <text
       xml:space="preserve"
       style="font-variant:normal;font-weight:normal;font-size:11.5127px;font-family:Arial;-inkscape-font-specification:ArialMT;writing-mode:lr-tb;fill:#ffffff;fill-opacity:1;fill-rule:nonzero;stroke:none;stroke-width:1.43909"
       id="text745"
       x="39.604042"
       y="307.08453"><tspan
         x="39.604042 46.0051 52.40617 55.595192 61.996254 68.397316 74.798378 84.388458 87.577484"
         y="307.08453"
         sodipodi:role="line"
         id="tspan741"
         style="stroke-width:1.43909">37 boom &amp;</tspan><tspan
         x="56.558304 62.959366 69.360428 75.116776"
         y="323.66779"
         sodipodi:role="line"
         id="tspan743"
         style="stroke-width:1.43909">bust</tspan></text>
    <path
       d="m 110.0812,331.25959 h 51.58115 l -0.12453,-0.004 0.49811,-0.023 0.48955,-0.12927 0.46854,-0.22751 0.4343,-0.32471 0.38603,-0.40688 0.33156,-0.48206 0.26774,-0.54419 0.19769,-0.5913 0.11829,-0.62637 0.0397,-0.64141 v -32.00808 l -0.0397,-0.64141 -0.11829,-0.62637 -0.19769,-0.5913 -0.26774,-0.54419 -0.33156,-0.48206 -0.38603,-0.40688 -0.4343,-0.32471 -0.46854,-0.22751 -0.48955,-0.12927 -0.37358,-0.027 H 110.0812 l 0.37436,0.027 -0.49889,-0.023 -0.49811,0.0742 -0.48099,0.18039 -0.44986,0.27761 -0.41328,0.36479 -0.35879,0.44598 -0.30121,0.51613 -0.23115,0.56825 -0.158,0.61033 -0.0817,0.6384 -0.009,0.32071 v 32.00808 l 0.009,-0.3217 v 0.64241 l 0.0817,0.6384 0.158,0.61033 0.23115,0.56825 0.30121,0.51613 0.35879,0.44698 0.41328,0.36379 0.44986,0.27761 0.48099,0.18039 0.49811,0.0742 z"
       style="fill:#501448;fill-opacity:0.89736849;fill-rule:nonzero;stroke:#22002b;stroke-width:0.662386;stroke-linecap:round;stroke-linejoin:round;stroke-miterlimit:10;stroke-dasharray:none;stroke-opacity:1"
       id="path747" />
    <text
       xml:space="preserve"
       style="font-variant:normal;font-weight:normal;font-size:8.53262px;font-family:Arial;-inkscape-font-specification:ArialMT;writing-mode:lr-tb;fill:#ffffff;fill-opacity:1;fill-rule:nonzero;stroke:none;stroke-width:1.06658"
       id="text753"
       x="115.84673"
       y="308.16351"><tspan
         x="115.84673 120.59086 125.33501 127.69855 132.44269 137.18683 141.93095 149.03864 151.40218"
         y="308.16351"
         sodipodi:role="line"
         id="tspan749"
         style="stroke-width:1.06658">28 boom &amp;</tspan><tspan
         x="108.9723 113.71643 118.46057 122.72689 125.09044 127.45397 131.72029 136.46442 140.73073 143.09427 145.45781 147.82135 152.56549 157.30963"
         y="320.45416"
         sodipodi:role="line"
         id="tspan751"
         style="stroke-width:1.06658">bust sust. unk.</tspan></text>
    <path
       d="m 177.34399,331.25722 h 49.17378 l -0.12948,-0.004 0.50845,-0.023 0.49662,-0.12926 0.4753,-0.22748 0.4374,-0.32467 0.39477,-0.40685 0.33635,-0.482 0.27159,-0.54413 0.19738,-0.59122 0.12002,-0.62629 0.0435,-0.64133 v -32.00432 l -0.0435,-0.64133 -0.12002,-0.62629 -0.19738,-0.59122 -0.27159,-0.54413 -0.33635,-0.482 -0.39477,-0.40685 -0.4374,-0.32467 -0.4753,-0.22748 -0.49662,-0.12926 -0.37897,-0.027 h -49.17378 l 0.38293,0.027 -0.50925,-0.023 -0.50214,0.0742 -0.48793,0.18037 -0.45952,0.27758 -0.41608,0.36475 -0.36714,0.44593 -0.30239,0.51607 -0.23686,0.56818 -0.16106,0.61026 -0.0797,0.63832 -0.0126,0.32066 v 32.00432 l 0.0126,-0.32167 v 0.64233 l 0.0797,0.63832 0.16106,0.61026 0.23686,0.56818 0.30239,0.51607 0.36714,0.44693 0.41608,0.36375 0.45952,0.27758 0.48793,0.18037 0.50214,0.0742 z"
       style="fill:#50164a;fill-opacity:0.80263156;fill-rule:nonzero;stroke:#22002b;stroke-width:0.667109;stroke-linecap:round;stroke-linejoin:round;stroke-miterlimit:10;stroke-dasharray:none;stroke-opacity:1"
       id="path755" />
    <text
       xml:space="preserve"
       style="font-variant:normal;font-weight:normal;font-size:8.71237px;font-family:Arial;-inkscape-font-specification:ArialMT;writing-mode:lr-tb;fill:#ffffff;fill-opacity:1;fill-rule:nonzero;stroke:none;stroke-width:1.08905"
       id="text761"
       x="175.05453"
       y="308.09842"><tspan
         x="175.05453 179.89861 184.74269 187.15602 192.00009 196.84418 196.84418 201.20036 203.61369 206.51491 211.35898 213.77231 218.61639 221.02972"
         y="308.09842"
         sodipodi:role="line"
         id="tspan757"
         style="stroke-width:1.08905">35 unk. rate &amp;</tspan><tspan
         x="192.73027 197.57434 202.41843 206.77461"
         y="320.64798"
         sodipodi:role="line"
         id="tspan759"
         style="stroke-width:1.08905">bust</tspan></text>
    <path
       d="m 242.44443,331.21578 h 64.054 l -0.164,-0.004 0.645,-0.023 0.629,-0.129 0.601,-0.227 0.555,-0.324 0.5,-0.406 0.426,-0.481 0.344,-0.543 0.25,-0.59 0.152,-0.625 0.055,-0.64 v -31.938 l -0.055,-0.64 -0.152,-0.625 -0.25,-0.59 -0.344,-0.543 -0.426,-0.481 -0.5,-0.406 -0.555,-0.324 -0.601,-0.227 -0.629,-0.129 -0.481,-0.027 h -64.054 l 0.484,0.027 -0.644,-0.023 -0.637,0.074 -0.617,0.18 -0.582,0.277 -0.528,0.364 -0.465,0.445 -0.382,0.515 -0.301,0.567 -0.203,0.609 -0.102,0.637 -0.016,0.32 v 31.938 l 0.016,-0.321 v 0.641 l 0.102,0.637 0.203,0.609 0.301,0.567 0.382,0.515 0.465,0.446 0.528,0.363 0.582,0.277 0.617,0.18 0.637,0.074 z"
       style="fill:#50164a;fill-opacity:0.69999999;fill-rule:nonzero;stroke:#22002b;stroke-width:0.75;stroke-linecap:round;stroke-linejoin:round;stroke-miterlimit:10;stroke-dasharray:none;stroke-opacity:1"
       id="path763" />
    <text
       xml:space="preserve"
       style="font-variant:normal;font-weight:normal;font-size:10.7963px;font-family:Arial;-inkscape-font-specification:ArialMT;writing-mode:lr-tb;fill:#ffffff;fill-opacity:1;fill-rule:nonzero;stroke:none;stroke-width:1.34953"
       id="text769"
       x="245.01006"
       y="307.34393"><tspan
         x="245.01006 251.01277 254.00334 260.00607 266.00879 271.40692 274.39749 277.99265 283.99536 286.98593 292.98868 295.97925"
         y="307.34393"
         sodipodi:role="line"
         id="tspan765"
         style="stroke-width:1.34953">2 unk rate &amp;</tspan><tspan
         x="240.81384 246.81657 252.81929 258.21744 261.20801 264.19858 269.59671 275.59943 280.99756 283.98813 286.9787 289.96927 295.97198 301.9747"
         y="322.8952"
         sodipodi:role="line"
         id="tspan767"
         style="stroke-width:1.34953">bust sust. unk.</tspan></text>
    <path
       d="m 96.31065,43.130981 v 32.078"
       style="fill:#000000;stroke:#000000;stroke-width:0.975;stroke-linecap:round;stroke-linejoin:round;stroke-miterlimit:10;stroke-dasharray:none;stroke-opacity:1"
       id="path771" />
    <path
       d="m 92.70865,68.974981 3.602,6.234 3.602,-6.234 z"
       style="fill:#000000;fill-opacity:1;fill-rule:nonzero;stroke:#000000;stroke-width:0.75;stroke-linecap:round;stroke-linejoin:round;stroke-miterlimit:10;stroke-dasharray:none;stroke-opacity:1"
       id="path773" />
    <path
       d="M 158.51149,59.254781 H 96.53615"
       style="fill:#000000;stroke:#000000;stroke-width:0.97425;stroke-linecap:round;stroke-linejoin:round;stroke-miterlimit:10;stroke-dasharray:none;stroke-opacity:1"
       id="path775" />
    <path
       d="m 153.82126,62.816821 6.17759,-3.69791 -6.28892,-3.50523 z"
       style="fill:#000000;fill-opacity:1;fill-rule:nonzero;stroke:#000000;stroke-width:0.75;stroke-linecap:round;stroke-linejoin:round;stroke-miterlimit:10;stroke-dasharray:none;stroke-opacity:1"
       id="path777" />
    <path
       d="m 96.31065,115.13098 v 37.836"
       style="fill:none;stroke:#000000;stroke-width:0.975;stroke-linecap:round;stroke-linejoin:round;stroke-miterlimit:10;stroke-dasharray:none;stroke-opacity:1"
       id="path779" />
    <path
       d="m 92.70865,146.73298 3.602,6.234 3.602,-6.234 z"
       style="fill:#000000;fill-opacity:1;fill-rule:nonzero;stroke:#000000;stroke-width:0.75;stroke-linecap:round;stroke-linejoin:round;stroke-miterlimit:10;stroke-dasharray:none;stroke-opacity:1"
       id="path781" />
    <path
       d="m 174.31065,131.16998 h -77.316"
       style="fill:none;stroke:#000000;stroke-width:0.975;stroke-linecap:round;stroke-linejoin:round;stroke-miterlimit:10;stroke-dasharray:none;stroke-opacity:1"
       id="path783" />
    <path
       d="m 181.04891,131.17223 -6.23319,-3.60341 -0.009,7.1998 z"
       style="fill:#000000;fill-opacity:1;fill-rule:nonzero;stroke:#000000;stroke-width:0.75;stroke-linecap:round;stroke-linejoin:round;stroke-miterlimit:10;stroke-dasharray:none;stroke-opacity:1"
       id="path785" />
    <path
       d="m 96.44982,181.23381 v 16.17416 H 31.845818 v 16.17818"
       style="fill:none;stroke:#000000;stroke-width:0.921925;stroke-linecap:round;stroke-linejoin:round;stroke-miterlimit:10;stroke-dasharray:none;stroke-opacity:1"
       id="path787" />
    <path
       d="m 28.20865,207.21298 3.602,6.234 3.602,-6.234 z"
       style="fill:#000000;fill-opacity:1;fill-rule:nonzero;stroke:#000000;stroke-width:0.75;stroke-linecap:round;stroke-linejoin:round;stroke-miterlimit:10;stroke-dasharray:none;stroke-opacity:1"
       id="path789" />
    <path
       d="m 96.31065,181.1884 v 16.28716"
       style="fill:none;stroke:#000000;stroke-width:0.53445;stroke-linecap:round;stroke-linejoin:round;stroke-miterlimit:10;stroke-dasharray:none;stroke-opacity:1"
       id="path791" />
    <path
       d="m 96.31065,197.53993 v 14.9481"
       style="fill:none;stroke:#000000;stroke-width:0.99975;stroke-linecap:round;stroke-linejoin:round;stroke-miterlimit:10;stroke-dasharray:none;stroke-opacity:1"
       id="path791-1" />
    <path
       d="m 92.70865,207.21298 3.602,6.234 3.602,-6.234 z"
       style="fill:#000000;fill-opacity:1;fill-rule:nonzero;stroke:#000000;stroke-width:0.75;stroke-linecap:round;stroke-linejoin:round;stroke-miterlimit:10;stroke-dasharray:none;stroke-opacity:1"
       id="path793" />
    <path
       d="m 96.20131,181.26364 v 16.14433 h 71.78018 v 16.14835"
       style="fill:none;stroke:#000000;stroke-width:0.981;stroke-linecap:round;stroke-linejoin:round;stroke-miterlimit:10;stroke-dasharray:none;stroke-opacity:1"
       id="path795" />
    <path
       d="m 164.36943,207.29778 3.602,6.234 3.602,-6.234 z"
       style="fill:#000000;fill-opacity:1;fill-rule:nonzero;stroke:#000000;stroke-width:0.75;stroke-linecap:round;stroke-linejoin:round;stroke-miterlimit:10;stroke-dasharray:none;stroke-opacity:1"
       id="path797" />
    <path
       d="M 167.83774,265.11147 V 278.1338 H 67.45185 v 13.02629"
       style="fill:none;stroke:#50164a;stroke-width:1.01738;stroke-linecap:round;stroke-linejoin:round;stroke-miterlimit:10;stroke-dasharray:none;stroke-opacity:1"
       id="path807" />
    <path
       d="m 63.86943,285.05978 3.602,6.234 3.602,-6.234 z"
       style="fill:#50164a;fill-opacity:1;fill-rule:nonzero;stroke:#50164a;stroke-width:0.75;stroke-linecap:round;stroke-linejoin:round;stroke-miterlimit:10;stroke-dasharray:none;stroke-opacity:1"
       id="path809" />
    <path
       d="M 167.85309,265.09612 V 278.1338 H 136.4176 v 13.04164"
       style="fill:none;stroke:#50164a;stroke-width:0.986673;stroke-linecap:round;stroke-linejoin:round;stroke-miterlimit:10;stroke-dasharray:none;stroke-opacity:1"
       id="path811" />
    <path
       d="m 132.86943,285.05978 3.602,6.234 3.602,-6.234 z"
       style="fill:#50164a;fill-opacity:1;fill-rule:nonzero;stroke:#50164a;stroke-width:0.75;stroke-linecap:round;stroke-linejoin:round;stroke-miterlimit:10;stroke-dasharray:none;stroke-opacity:1"
       id="path813" />
    <path
       d="m 167.92953,265.10549 v 13.02831 h 32.66513 v 13.03227"
       style="fill:none;stroke:#000000;stroke-width:1.00542;stroke-linecap:round;stroke-linejoin:round;stroke-miterlimit:10;stroke-dasharray:none;stroke-opacity:1"
       id="path815" />
    <path
       d="m 197.19982,285.05978 3.602,6.234 3.602,-6.234 z"
       style="fill:#50164a;fill-opacity:1;fill-rule:nonzero;stroke:#50164a;stroke-width:0.75;stroke-linecap:round;stroke-linejoin:round;stroke-miterlimit:10;stroke-dasharray:none;stroke-opacity:1"
       id="path817" />
    <path
       d="m 168.12002,265.12637 v 13.00743 h 106.47259 v 13.01139"
       style="fill:none;stroke:#50164a;stroke-width:1.04717;stroke-linecap:round;stroke-linejoin:round;stroke-miterlimit:10;stroke-dasharray:none;stroke-opacity:1"
       id="path819" />
    <path
       d="m 270.86943,285.05978 3.602,6.234 3.602,-6.234 z"
       style="fill:#50164a;fill-opacity:1;fill-rule:nonzero;stroke:#50164a;stroke-width:0.75;stroke-linecap:round;stroke-linejoin:round;stroke-miterlimit:10;stroke-dasharray:none;stroke-opacity:1"
       id="path821" />
    <rect
       style="fill:#d45500;stroke:#d45500;stroke-width:0.975;stroke-miterlimit:0.4"
       id="rect5578"
       width="35.958092"
       height="33.192085"
       x="419.91394"
       y="-1.3086569" />
    <rect
       style="fill:#a02c2c;stroke:#a02c2c;stroke-width:0.975;stroke-miterlimit:0.4"
       id="rect5580"
       width="35.958092"
       height="32.270081"
       x="419.45294"
       y="33.610439" />
    <rect
       style="fill:#50164a;stroke:#50164a;stroke-width:0.975;stroke-miterlimit:0.4"
       id="rect5582"
       width="35.036087"
       height="34.114082"
       x="419.91394"
       y="68.068535" />
    <rect
       style="fill:#501549;fill-opacity:0.74901962;stroke:#50164a;stroke-width:0.975;stroke-miterlimit:0.4;stroke-opacity:0.75"
       id="rect5582-8"
       width="35.036087"
       height="34.114082"
       x="380.61182"
       y="67.724518" />
    <rect
       style="fill:#50164a;fill-opacity:0.501441;stroke:#50164a;stroke-width:0.975;stroke-miterlimit:0.4;stroke-opacity:0.504323"
       id="rect5582-84"
       width="35.036087"
       height="34.114082"
       x="342.57138"
       y="68.031586" />
    <text
       xml:space="preserve"
       transform="matrix(0.75000001,0,0,0.75000001,0,-1.08e-5)"
       id="text3262"
       style="font-style:normal;font-variant:normal;font-weight:normal;font-stretch:condensed;font-size:10.4382px;font-family:Arial;-inkscape-font-specification:'Arial, Condensed';font-variant-ligatures:normal;font-variant-position:super;font-variant-caps:normal;font-variant-numeric:normal;font-variant-east-asian:normal;text-align:justify;white-space:pre;shape-inside:url(#rect3264);display:inline;fill:#000000;stroke:#000000;stroke-width:0.533;stroke-miterlimit:0.4" />
    <text
       xml:space="preserve"
       style="font-style:normal;font-variant:normal;font-weight:normal;font-stretch:condensed;font-size:7.82865px;font-family:Arial;-inkscape-font-specification:'Arial, Condensed';font-variant-ligatures:normal;font-variant-position:super;font-variant-caps:normal;font-variant-numeric:normal;font-variant-east-asian:normal;text-align:justify;fill:#ffffff;stroke:#ffffff;stroke-width:0;stroke-miterlimit:0.4;stroke-dasharray:none"
       x="169.69058"
       y="23.081329"
       id="text3270"><tspan
         sodipodi:role="line"
         id="tspan3268"
         style="font-style:normal;font-variant:normal;font-weight:normal;font-stretch:condensed;font-size:10px;font-family:Arial;-inkscape-font-specification:'Arial, Condensed';font-variant-ligatures:normal;font-variant-caps:normal;font-variant-numeric:normal;font-variant-east-asian:normal;stroke-width:0;fill:#ffffff;stroke:#ffffff;stroke-dasharray:none"
         x="169.69058"
         y="23.081329">256 excluded:</tspan><tspan
         sodipodi:role="line"
         style="font-style:normal;font-variant:normal;font-weight:normal;font-stretch:condensed;font-size:10px;font-family:Arial;-inkscape-font-specification:'Arial, Condensed';font-variant-ligatures:normal;font-variant-caps:normal;font-variant-numeric:normal;font-variant-east-asian:normal;stroke-width:0;fill:#ffffff;stroke:#ffffff;stroke-dasharray:none"
         x="169.69058"
         y="35.581329"
         id="tspan3272">-191: years survey &lt;10 years</tspan><tspan
         sodipodi:role="line"
         style="font-style:normal;font-variant:normal;font-weight:normal;font-stretch:condensed;font-size:10px;font-family:Arial;-inkscape-font-specification:'Arial, Condensed';font-variant-ligatures:normal;font-variant-caps:normal;font-variant-numeric:normal;font-variant-east-asian:normal;stroke-width:0;fill:#ffffff;stroke:#ffffff;stroke-dasharray:none"
         x="169.69058"
         y="48.081329"
         id="tspan3274">          or &lt; 8 years if longevity is </tspan><tspan
         sodipodi:role="line"
         style="font-style:normal;font-variant:normal;font-weight:normal;font-stretch:condensed;font-size:10px;font-family:Arial;-inkscape-font-specification:'Arial, Condensed';font-variant-ligatures:normal;font-variant-caps:normal;font-variant-numeric:normal;font-variant-east-asian:normal;stroke-width:0;fill:#ffffff;stroke:#ffffff;stroke-dasharray:none"
         x="169.69058"
         y="60.581329"
         id="tspan3284">          &lt; 1 year</tspan><tspan
         sodipodi:role="line"
         style="font-style:normal;font-variant:normal;font-weight:normal;font-stretch:condensed;font-size:10px;font-family:Arial;-inkscape-font-specification:'Arial, Condensed';font-variant-ligatures:normal;font-variant-caps:normal;font-variant-numeric:normal;font-variant-east-asian:normal;stroke-width:0;fill:#ffffff;stroke:#ffffff;stroke-dasharray:none"
         x="169.69058"
         y="73.081329"
         id="tspan3276">-140: 10 consecutive years </tspan><tspan
         sodipodi:role="line"
         style="font-style:normal;font-variant:normal;font-weight:normal;font-stretch:condensed;font-size:10px;font-family:Arial;-inkscape-font-specification:'Arial, Condensed';font-variant-ligatures:normal;font-variant-caps:normal;font-variant-numeric:normal;font-variant-east-asian:normal;stroke-width:0;fill:#ffffff;stroke:#ffffff;stroke-dasharray:none"
         x="169.69058"
         y="85.581329"
         id="tspan3286">         &lt; 80% complete</tspan><tspan
         sodipodi:role="line"
         style="font-style:normal;font-variant:normal;font-weight:normal;font-stretch:condensed;font-size:10px;font-family:Arial;-inkscape-font-specification:'Arial, Condensed';font-variant-ligatures:normal;font-variant-caps:normal;font-variant-numeric:normal;font-variant-east-asian:normal;stroke-width:0;fill:#ffffff;stroke:#ffffff;stroke-dasharray:none"
         x="169.69058"
         y="98.081329"
         id="tspan3278">-10: harvest</tspan></text>
  </g>
</svg>
