<?xml version="1.0" encoding="UTF-8" standalone="no"?>
<!-- Created with Inkscape (http://www.inkscape.org/) -->

<svg
   version="1.1"
   id="svg2"
   width="575"
   height="412"
   viewBox="0 0 575 412"
   sodipodi:docname="flowchart.svg"
   inkscape:version="1.2.2 (732a01da63, 2022-12-09)"
   xmlns:inkscape="http://www.inkscape.org/namespaces/inkscape"
   xmlns:sodipodi="http://sodipodi.sourceforge.net/DTD/sodipodi-0.dtd"
   xmlns="http://www.w3.org/2000/svg"
   xmlns:svg="http://www.w3.org/2000/svg">
  <defs
     id="defs6" />
  <sodipodi:namedview
     id="namedview4"
     pagecolor="#ffffff"
     bordercolor="#000000"
     borderopacity="0.25"
     inkscape:showpageshadow="2"
     inkscape:pageopacity="0.0"
     inkscape:pagecheckerboard="0"
     inkscape:deskcolor="#d1d1d1"
     showgrid="false"
     inkscape:zoom="1.3047962"
     inkscape:cx="224.17294"
     inkscape:cy="254.82907"
     inkscape:window-width="1920"
     inkscape:window-height="991"
     inkscape:window-x="-9"
     inkscape:window-y="-9"
     inkscape:window-maximized="1"
     inkscape:current-layer="g10">
    <inkscape:page
       x="0"
       y="0"
       id="page8"
       width="575"
       height="412"
       inkscape:export-filename="flowchart_edit.png"
       inkscape:export-xdpi="183.33333"
       inkscape:export-ydpi="183.33333" />
  </sodipodi:namedview>
  <g
     id="g10"
     inkscape:groupmode="layer"
     inkscape:label="Page 1"
     transform="matrix(1.3333333,0,0,1.3333333,0,1.44e-5)">
    <path
       d="m 183.80432,44.175694 h 64.5 l -0.16,-0.004 0.64,-0.027 0.629,-0.129 0.602,-0.226 0.559,-0.321 0.496,-0.406 0.425,-0.48 0.344,-0.543 0.254,-0.594 0.152,-0.621 0.051,-0.641 V 8.242698 l -0.051,-0.641 -0.152,-0.621 -0.254,-0.594 -0.344,-0.543 -0.425,-0.48 -0.496,-0.406 -0.559,-0.321 -0.602,-0.226 -0.629,-0.129 -0.48,-0.031 h -64.5 l 0.48,0.031 -0.64,-0.028 -0.641,0.079 -0.617,0.179 -0.578,0.274 -0.531,0.367 -0.461,0.441 -0.387,0.516 -0.297,0.57 -0.203,0.61 -0.105,0.632 -0.012,0.321 v 31.940996 l 0.012,-0.324 v 0.644 l 0.105,0.633 0.203,0.61 0.297,0.57 0.387,0.512 0.461,0.445 0.531,0.367 0.578,0.274 0.617,0.179 0.641,0.078 z"
       style="fill:#50164a;fill-opacity:1;fill-rule:nonzero;stroke:#50164a;stroke-width:0.75;stroke-linecap:round;stroke-linejoin:round;stroke-miterlimit:10;stroke-dasharray:none;stroke-opacity:1"
       id="path16" />
    <text
       xml:space="preserve"
       style="font-variant:normal;font-weight:normal;font-size:8px;font-family:Arial;-inkscape-font-specification:ArialMT;writing-mode:lr-tb;fill:#ffffff;fill-opacity:1;fill-rule:nonzero;stroke:none"
       id="text22"
       x="191.14807"
       y="21.316603"><tspan
         x="191.14807 195.59607 200.04407 204.49207 206.70807 210.70807 215.15607 221.82007 226.26807 228.04407 229.82007 234.26807 238.71606"
         y="21.316603"
         sodipodi:role="line"
         id="tspan18">448 compiled </tspan><tspan
         x="198.93439 201.15038 202.92638 209.59038 214.03838 218.03838 222.48637 225.15038 226.92638 231.37437"
         y="32.836132"
         sodipodi:role="line"
         id="tspan20">timeseries</tspan></text>
    <path
       d="m 176.46832,130.57469 h 79.172 l -0.16,-0.004 0.64,-0.024 0.629,-0.129 0.602,-0.23 0.558,-0.32 0.497,-0.407 0.425,-0.48 0.344,-0.543 0.254,-0.59 0.152,-0.625 0.051,-0.64 V 94.644694 l -0.051,-0.641 -0.152,-0.625 -0.254,-0.589 -0.344,-0.543 -0.425,-0.481 -0.497,-0.41 -0.558,-0.32 -0.602,-0.227 -0.629,-0.129 -0.48,-0.027 h -79.172 l 0.481,0.027 -0.641,-0.027 -0.641,0.078 -0.617,0.18 -0.578,0.273 -0.531,0.367 -0.461,0.446 -0.387,0.511 -0.297,0.571 -0.203,0.609 -0.105,0.633 -0.012,0.324 v 31.937996 l 0.012,-0.321 v 0.641 l 0.105,0.637 0.203,0.609 0.297,0.566 0.387,0.516 0.461,0.445 0.531,0.364 0.578,0.277 0.617,0.176 0.641,0.078 z"
       style="fill:#50164a;fill-opacity:1;fill-rule:nonzero;stroke:#50164a;stroke-width:0.75;stroke-linecap:round;stroke-linejoin:round;stroke-miterlimit:10;stroke-dasharray:none;stroke-opacity:1"
       id="path24" />
    <text
       xml:space="preserve"
       style="font-variant:normal;font-weight:normal;font-size:8px;font-family:Arial;-inkscape-font-specification:ArialMT;writing-mode:lr-tb;fill:#ffffff;fill-opacity:1;fill-rule:nonzero;stroke:none"
       id="text30"
       x="183.81213"
       y="107.71503"><tspan
         x="183.81213 188.26013 192.70813 197.15613 199.37213 206.03613 210.48413 212.70013 214.91612 216.69212 221.14012 225.14012 226.91612 231.36412 235.36412 237.14012 241.58813 246.03613"
         y="107.71503"
         sodipodi:role="line"
         id="tspan26">103 met inclusion </tspan><tspan
         x="205.15703 209.15703 211.82103 213.59703 215.81303 220.26103 222.92503 224.70103"
         y="119.23457"
         sodipodi:role="line"
         id="tspan28">criteria</tspan></text>
    <path
       d="m 54.76132,98.179694 h 106.586 l -0.25,-0.008 0.992,-0.039 0.969,-0.195 0.926,-0.352 0.859,-0.496 0.766,-0.625 0.656,-0.742 0.531,-0.836 0.387,-0.914 0.238,-0.961 0.078,-0.988 v -49.223 l -0.078,-0.988 -0.238,-0.961 -0.387,-0.91 -0.531,-0.84 -0.656,-0.738 -0.766,-0.629 -0.859,-0.492 -0.926,-0.352 -0.969,-0.198996 -0.742,-0.047 h -106.586 l 0.742,0.047 -0.988,-0.039 -0.984,0.117 -0.95,0.276996 -0.894,0.426 -0.817,0.563 -0.714,0.683 -0.594,0.793 -0.461,0.875 -0.313,0.942 -0.16,0.976 -0.019,0.496 v 49.223 l 0.019,-0.492 v 0.988 l 0.16,0.977 0.313,0.941 0.461,0.875 0.594,0.793 0.714,0.687 0.817,0.563 0.894,0.422 0.95,0.277 0.984,0.117 z"
       style="fill:#50164a;fill-opacity:1;fill-rule:nonzero;stroke:#50164a;stroke-width:0.75;stroke-linecap:round;stroke-linejoin:round;stroke-miterlimit:10;stroke-dasharray:none;stroke-opacity:1"
       id="path32" />
    <text
       xml:space="preserve"
       style="font-variant:normal;font-weight:normal;font-size:6px;font-family:Arial;-inkscape-font-specification:ArialMT;writing-mode:lr-tb;fill:#ffffff;fill-opacity:1;fill-rule:nonzero;stroke:none"
       id="text44"
       x="59.948853"
       y="52.281445"><tspan
         x="59.948853 63.284851 66.620857 69.956856 71.618858 74.954857 77.954857 80.954857 82.286858 85.622856 88.958855 92.294853 95.630852"
         y="52.281445"
         sodipodi:role="line"
         id="tspan34">345 excluded:</tspan><tspan
         x="59.948853 61.94685 63.608852 66.944855 70.280853 73.616852 75.278854 76.940857 79.940857 83.276855 86.612854 88.610855 91.610855 93.272858 96.272858 99.608856 101.60686 104.60686 107.94286 110.94286 114.27885 117.61485 119.27686 122.77486 124.43686 127.77284 131.10886 132.77084 135.77084 139.10684 142.44286 144.44084 147.44084 149.10284 152.43884 154.43684"
         y="60.92207"
         sodipodi:role="line"
         id="tspan36">- 191: years surveyed &lt; 10 years or </tspan><tspan
         x="61.610851 65.108856 66.770859 70.106857 71.768852 74.768852 78.104858 81.440857 83.438858 86.438858 88.100853 89.432854 91.094856 92.756851 94.088852 97.424858 100.76086 104.09686 107.43285 110.43285 111.76485 113.42686 116.42686 118.08886 121.58685 123.24886"
         y="69.558784"
         sodipodi:role="line"
         id="tspan38">&lt; 8 years if longevity &lt; 1</tspan><tspan
         x="59.948853 61.94685 63.608852 66.944855 70.280853 73.616852 75.278854 76.940857 80.438858 82.100853 85.436859 88.772858 92.108856 97.442856 99.104851 103.43686 106.77286 111.77084 115.10686 116.43886 119.77486 121.43686"
         y="78.199409"
         sodipodi:role="line"
         id="tspan40">- 261: &lt; 100% Complete</tspan><tspan
         x="59.948853 61.94685 63.608852 66.944855 70.280853 71.942856 73.604858 76.940857 80.276855 82.274857 85.274857 88.610855 91.610855"
         y="86.840034"
         sodipodi:role="line"
         id="tspan42">- 10: harvest</tspan></text>
    <path
       d="m 162.86332,211.21469 h 106.382 l -0.117,-0.004 0.457,-0.015 0.449,-0.094 0.426,-0.16 0.399,-0.231 0.351,-0.289 0.305,-0.339 0.242,-0.387 0.18,-0.422 0.109,-0.445 0.039,-0.453 v -22.723 l -0.039,-0.457 -0.109,-0.445 -0.18,-0.418 -0.242,-0.387 -0.305,-0.344 -0.351,-0.289 -0.399,-0.227 -0.426,-0.164 -0.449,-0.089 -0.34,-0.02 h -106.382 l 0.343,0.02 -0.457,-0.02 -0.453,0.055 -0.437,0.129 -0.414,0.195 -0.375,0.258 -0.332,0.316 -0.274,0.367 -0.211,0.407 -0.148,0.433 -0.071,0.449 -0.011,0.231 v 22.723 l 0.011,-0.231 v 0.457 l 0.071,0.453 0.148,0.434 0.211,0.402 0.274,0.367 0.332,0.317 0.375,0.258 0.414,0.199 0.437,0.125 0.453,0.054 z"
       style="fill:#50164a;fill-opacity:1;fill-rule:nonzero;stroke:#50164a;stroke-width:0.75;stroke-linecap:round;stroke-linejoin:round;stroke-miterlimit:10;stroke-dasharray:none;stroke-opacity:1"
       id="path46" />
    <text
       xml:space="preserve"
       style="font-variant:normal;font-weight:normal;font-size:8px;font-family:Arial;-inkscape-font-specification:ArialMT;writing-mode:lr-tb;fill:#ffffff;fill-opacity:1;fill-rule:nonzero;stroke:none"
       id="text50"
       x="171.36292"
       y="199.87518"><tspan
         x="171.36292 175.81091 180.25891 182.47491 185.13892 189.58691 194.03491 195.81091 202.47491 206.92291 209.13892 213.13892 217.58691 219.36292 221.5789 223.79491 227.79491 230.01091 234.45891 238.90691 241.12291 245.57091 249.57091 251.78691 256.23492"
         y="199.87518"
         sodipodi:role="line"
         id="tspan48">77 regime shifts detected</tspan></text>
    <path
       d="m 80.93332,171.61769 h 54.242 -0.141 l 0.571,-0.024 0.562,-0.117 0.535,-0.203 0.497,-0.285 0.445,-0.363 0.379,-0.43 0.308,-0.485 0.223,-0.527 0.137,-0.555 0.047,-0.57 v -28.492 l -0.047,-0.57 -0.137,-0.555 -0.223,-0.527 -0.308,-0.485 -0.379,-0.429 -0.445,-0.364 -0.497,-0.285 -0.535,-0.203 -0.562,-0.117 -0.43,-0.024 h -54.242 l 0.43,0.024 -0.575,-0.024 -0.57,0.071 -0.551,0.16 -0.515,0.246 -0.473,0.324 -0.414,0.399 -0.344,0.457 -0.265,0.507 -0.18,0.543 -0.094,0.567 -0.012,0.285 v 28.492 l 0.012,-0.289 v 0.574 l 0.094,0.567 0.18,0.543 0.265,0.507 0.344,0.457 0.414,0.399 0.473,0.324 0.515,0.246 0.551,0.16 0.57,0.071 z"
       style="fill:#50164a;fill-opacity:1;fill-rule:nonzero;stroke:#50164a;stroke-width:0.75;stroke-linecap:round;stroke-linejoin:round;stroke-miterlimit:10;stroke-dasharray:none;stroke-opacity:1"
       id="path52" />
    <text
       xml:space="preserve"
       style="font-variant:normal;font-weight:normal;font-size:6px;font-family:Arial;-inkscape-font-specification:ArialMT;writing-mode:lr-tb;fill:#ffffff;fill-opacity:1;fill-rule:nonzero;stroke:none"
       id="text58"
       x="88.710571"
       y="151.64082"><tspan
         x="88.710571 92.046577 95.382576 97.044571 100.38058 103.71658 105.37856 107.37658 110.71258 114.04858 115.38058 120.37856"
         y="151.64082"
         sodipodi:role="line"
         id="tspan54">26 no regime</tspan><tspan
         x="88.710571 91.710571 95.046577 96.378578 98.040573 99.702576 102.70258 104.36458 107.70058 111.03658 112.69858 116.03458 119.03458 120.69658 124.03257"
         y="160.28145"
         sodipodi:role="line"
         id="tspan56">shifts detected</tspan></text>
    <path
       d="m 8.47232,303.37569 h 55.164 l -0.16,-0.004 0.641,-0.028 0.628,-0.129 0.602,-0.226 0.559,-0.321 0.496,-0.406 0.425,-0.48 0.344,-0.543 0.254,-0.594 0.152,-0.621 0.051,-0.641 v -31.941 l -0.051,-0.641 -0.152,-0.621 -0.254,-0.594 -0.344,-0.543 -0.425,-0.48 -0.496,-0.406 -0.559,-0.321 -0.602,-0.226 -0.628,-0.129 -0.481,-0.031 h -55.164 l 0.48,0.031 -0.64,-0.027 -0.641,0.078 -0.617,0.179 -0.578,0.274 -0.531,0.367 -0.461,0.445 -0.387,0.512 -0.297,0.57 -0.203,0.61 -0.105,0.633 -0.012,0.32 v 31.941 l 0.012,-0.32 v 0.641 l 0.105,0.632 0.203,0.61 0.297,0.57 0.387,0.516 0.461,0.441 0.531,0.367 0.578,0.274 0.617,0.179 0.641,0.079 z"
       style="fill:#50164a;fill-opacity:1;fill-rule:nonzero;stroke:#50164a;stroke-width:0.75;stroke-linecap:round;stroke-linejoin:round;stroke-miterlimit:10;stroke-dasharray:none;stroke-opacity:1"
       id="path60" />
    <text
       xml:space="preserve"
       style="font-variant:normal;font-weight:normal;font-size:8px;font-family:Arial;-inkscape-font-specification:ArialMT;writing-mode:lr-tb;fill:#ffffff;fill-opacity:1;fill-rule:nonzero;stroke:none"
       id="text66"
       x="32.718384"
       y="280.51581"><tspan
         x="32.718384 37.166382"
         y="280.51581"
         sodipodi:role="line"
         id="tspan62">8 </tspan><tspan
         x="15.819944 20.267942 24.267942 26.483944 30.931944 35.379944 37.155945 38.931942 42.931942 47.379944 51.827942"
         y="292.03534"
         sodipodi:role="line"
         id="tspan64">established</tspan></text>
    <path
       d="m 83.14032,303.37569 h 49.828 l -0.164,-0.004 0.645,-0.028 0.628,-0.129 0.602,-0.226 0.555,-0.321 0.5,-0.406 0.425,-0.48 0.344,-0.543 0.25,-0.594 0.153,-0.621 0.054,-0.641 v -31.941 l -0.054,-0.641 -0.153,-0.621 -0.25,-0.594 -0.344,-0.543 -0.425,-0.48 -0.5,-0.406 -0.555,-0.321 -0.602,-0.226 -0.628,-0.129 -0.481,-0.031 h -49.828 l 0.484,0.031 -0.644,-0.027 -0.637,0.078 -0.617,0.179 -0.582,0.274 -0.527,0.367 -0.465,0.445 -0.383,0.512 -0.301,0.57 -0.203,0.61 -0.102,0.633 -0.015,0.32 v 31.941 l 0.015,-0.32 v 0.641 l 0.102,0.632 0.203,0.61 0.301,0.57 0.383,0.516 0.465,0.441 0.527,0.367 0.582,0.274 0.617,0.179 0.637,0.079 z"
       style="fill:#50164a;fill-opacity:1;fill-rule:nonzero;stroke:#50164a;stroke-width:0.75;stroke-linecap:round;stroke-linejoin:round;stroke-miterlimit:10;stroke-dasharray:none;stroke-opacity:1"
       id="path68" />
    <text
       xml:space="preserve"
       style="font-variant:normal;font-weight:normal;font-size:8px;font-family:Arial;-inkscape-font-specification:ArialMT;writing-mode:lr-tb;fill:#ffffff;fill-opacity:1;fill-rule:nonzero;stroke:none"
       id="text74"
       x="102.49183"
       y="280.51581"><tspan
         x="102.49183 106.93983 111.38783"
         y="280.51581"
         sodipodi:role="line"
         id="tspan70">16 </tspan><tspan
         x="90.487923 94.935921 98.935921 103.38392 106.04791 110.04791 114.49593 118.94392 123.39193"
         y="292.03534"
         sodipodi:role="line"
         id="tspan72">overshoot</tspan></text>
    <path
       d="m 153.36332,303.37569 h 53.382 l -0.16,-0.004 0.641,-0.028 0.629,-0.129 0.601,-0.226 0.559,-0.321 0.496,-0.406 0.426,-0.48 0.344,-0.543 0.253,-0.594 0.153,-0.621 0.051,-0.641 v -31.941 l -0.051,-0.641 -0.153,-0.621 -0.253,-0.594 -0.344,-0.543 -0.426,-0.48 -0.496,-0.406 -0.559,-0.321 -0.601,-0.226 -0.629,-0.129 -0.481,-0.031 h -53.382 l 0.48,0.031 -0.641,-0.027 -0.64,0.078 -0.617,0.179 -0.578,0.274 -0.532,0.367 -0.461,0.445 -0.386,0.512 -0.297,0.57 -0.203,0.61 -0.106,0.633 -0.012,0.32 v 31.941 l 0.012,-0.32 v 0.641 l 0.106,0.632 0.203,0.61 0.297,0.57 0.386,0.516 0.461,0.441 0.532,0.367 0.578,0.274 0.617,0.179 0.64,0.079 z"
       style="fill:#50164a;fill-opacity:1;fill-rule:nonzero;stroke:#50164a;stroke-width:0.75;stroke-linecap:round;stroke-linejoin:round;stroke-miterlimit:10;stroke-dasharray:none;stroke-opacity:1"
       id="path76" />
    <text
       xml:space="preserve"
       style="font-variant:normal;font-weight:normal;font-size:8px;font-family:Arial;-inkscape-font-specification:ArialMT;writing-mode:lr-tb;fill:#ffffff;fill-opacity:1;fill-rule:nonzero;stroke:none"
       id="text82"
       x="160.71057"
       y="280.51581"><tspan
         x="160.71057 165.15857 169.60657 171.82257 176.27057 180.71857 185.16656 191.83057 194.04657"
         y="280.51581"
         sodipodi:role="line"
         id="tspan78">20 boom &amp;</tspan><tspan
         x="172.49182 176.93982 181.38782 185.38782"
         y="292.03534"
         sodipodi:role="line"
         id="tspan80">bust</tspan></text>
    <path
       d="m 225.36332,303.37569 h 53.382 l -0.16,-0.004 0.641,-0.028 0.629,-0.129 0.601,-0.226 0.559,-0.321 0.496,-0.406 0.426,-0.48 0.344,-0.543 0.253,-0.594 0.153,-0.621 0.051,-0.641 v -31.941 l -0.051,-0.641 -0.153,-0.621 -0.253,-0.594 -0.344,-0.543 -0.426,-0.48 -0.496,-0.406 -0.559,-0.321 -0.601,-0.226 -0.629,-0.129 -0.481,-0.031 h -53.382 l 0.48,0.031 -0.641,-0.027 -0.64,0.078 -0.617,0.179 -0.578,0.274 -0.532,0.367 -0.461,0.445 -0.386,0.512 -0.297,0.57 -0.203,0.61 -0.106,0.633 -0.012,0.32 v 31.941 l 0.012,-0.32 v 0.641 l 0.106,0.632 0.203,0.61 0.297,0.57 0.386,0.516 0.461,0.441 0.532,0.367 0.578,0.274 0.617,0.179 0.64,0.079 z"
       style="fill:#50164a;fill-opacity:1;fill-rule:nonzero;stroke:#50164a;stroke-width:0.75;stroke-linecap:round;stroke-linejoin:round;stroke-miterlimit:10;stroke-dasharray:none;stroke-opacity:1"
       id="path84" />
    <text
       xml:space="preserve"
       style="font-variant:normal;font-weight:normal;font-size:8px;font-family:Arial;-inkscape-font-specification:ArialMT;writing-mode:lr-tb;fill:#ffffff;fill-opacity:1;fill-rule:nonzero;stroke:none"
       id="text90"
       x="232.71057"
       y="280.51581"><tspan
         x="232.71057 237.15857 241.60657 243.82257 248.27057 252.71857 257.16656 263.83057 266.04657"
         y="280.51581"
         sodipodi:role="line"
         id="tspan86">12 boom &amp;</tspan><tspan
         x="236.93713 241.38513 245.83313 248.04913 250.26512 254.26512 258.71313 262.71313 264.92914"
         y="292.03534"
         sodipodi:role="line"
         id="tspan88">not sust.</tspan></text>
    <path
       d="m 292.91332,303.37569 h 62.282 l -0.164,-0.004 0.644,-0.028 0.629,-0.129 0.602,-0.226 0.554,-0.321 0.5,-0.406 0.426,-0.48 0.344,-0.543 0.25,-0.594 0.152,-0.621 0.055,-0.641 v -31.941 l -0.055,-0.641 -0.152,-0.621 -0.25,-0.594 -0.344,-0.543 -0.426,-0.48 -0.5,-0.406 -0.554,-0.321 -0.602,-0.226 -0.629,-0.129 -0.48,-0.031 h -62.282 l 0.485,0.031 -0.645,-0.027 -0.636,0.078 -0.618,0.179 -0.582,0.274 -0.527,0.367 -0.465,0.445 -0.383,0.512 -0.3,0.57 -0.204,0.61 -0.101,0.633 -0.016,0.32 v 31.941 l 0.016,-0.32 v 0.641 l 0.101,0.632 0.204,0.61 0.3,0.57 0.383,0.516 0.465,0.441 0.527,0.367 0.582,0.274 0.618,0.179 0.636,0.079 z"
       style="fill:#50164a;fill-opacity:1;fill-rule:nonzero;stroke:#50164a;stroke-width:0.75;stroke-linecap:round;stroke-linejoin:round;stroke-miterlimit:10;stroke-dasharray:none;stroke-opacity:1"
       id="path92" />
    <text
       xml:space="preserve"
       style="font-variant:normal;font-weight:normal;font-size:8px;font-family:Arial;-inkscape-font-specification:ArialMT;writing-mode:lr-tb;fill:#ffffff;fill-opacity:1;fill-rule:nonzero;stroke:none"
       id="text98"
       x="300.26135"
       y="280.51581"><tspan
         x="300.26135 304.70935 309.15735 311.37335 315.82135 320.26935 324.26935 326.48535 329.14935 333.59735 335.81335 340.26135 342.47736"
         y="280.51581"
         sodipodi:role="line"
         id="tspan94">16 unk rate &amp;</tspan><tspan
         x="316.49182 320.93982 325.38782 329.38782"
         y="292.03534"
         sodipodi:role="line"
         id="tspan96">bust</tspan></text>
    <path
       d="m 367.14032,303.37569 h 57.828 l -0.16,-0.004 0.641,-0.028 0.628,-0.129 0.602,-0.226 0.559,-0.321 0.496,-0.406 0.425,-0.48 0.344,-0.543 0.254,-0.594 0.152,-0.621 0.051,-0.641 v -31.941 l -0.051,-0.641 -0.152,-0.621 -0.254,-0.594 -0.344,-0.543 -0.425,-0.48 -0.496,-0.406 -0.559,-0.321 -0.602,-0.226 -0.628,-0.129 -0.481,-0.031 h -57.828 l 0.48,0.031 -0.64,-0.027 -0.641,0.078 -0.617,0.179 -0.578,0.274 -0.531,0.367 -0.461,0.445 -0.387,0.512 -0.297,0.57 -0.203,0.61 -0.106,0.633 -0.011,0.32 v 31.941 l 0.011,-0.32 v 0.641 l 0.106,0.632 0.203,0.61 0.297,0.57 0.387,0.516 0.461,0.441 0.531,0.367 0.578,0.274 0.617,0.179 0.641,0.079 z"
       style="fill:#50164a;fill-opacity:1;fill-rule:nonzero;stroke:#50164a;stroke-width:0.75;stroke-linecap:round;stroke-linejoin:round;stroke-miterlimit:10;stroke-dasharray:none;stroke-opacity:1"
       id="path100" />
    <text
       xml:space="preserve"
       style="font-variant:normal;font-weight:normal;font-size:8px;font-family:Arial;-inkscape-font-specification:ArialMT;writing-mode:lr-tb;fill:#ffffff;fill-opacity:1;fill-rule:nonzero;stroke:none"
       id="text106"
       x="374.48401"
       y="280.51581"><tspan
         x="374.48401 378.93201 381.14801 385.59601 390.04401 394.04401 396.26001 398.92401 403.37201 405.58801 410.03601 412.25201"
         y="280.51581"
         sodipodi:role="line"
         id="tspan102">5 unk rate &amp;</tspan><tspan
         x="380.93713 385.38513 389.83313 392.04913 394.26514 398.26514 402.71313 406.71313 408.92914"
         y="292.03534"
         sodipodi:role="line"
         id="tspan104">not sust.</tspan></text>
    <path
       d="m 216.05432,44.175694 v 46.477"
       style="fill:none;stroke:#50164a;stroke-width:0.75;stroke-linecap:round;stroke-linejoin:round;stroke-miterlimit:10;stroke-dasharray:none;stroke-opacity:1"
       id="path108" />
    <path
       d="m 212.45232,84.414694 3.602,6.238 3.602,-6.238 z"
       style="fill:#50164a;fill-opacity:1;fill-rule:nonzero;stroke:#50164a;stroke-width:0.75;stroke-linecap:round;stroke-linejoin:round;stroke-miterlimit:10;stroke-dasharray:none;stroke-opacity:1"
       id="path110" />
    <path
       d="m 216.05432,67.414694 h -48.555"
       style="fill:none;stroke:#50164a;stroke-width:0.75;stroke-linecap:round;stroke-linejoin:round;stroke-miterlimit:10;stroke-dasharray:none;stroke-opacity:1"
       id="path112" />
    <path
       d="m 173.73432,63.812694 -6.235,3.602 6.235,3.597 z"
       style="fill:#50164a;fill-opacity:1;fill-rule:nonzero;stroke:#50164a;stroke-width:0.75;stroke-linecap:round;stroke-linejoin:round;stroke-miterlimit:10;stroke-dasharray:none;stroke-opacity:1"
       id="path114" />
    <path
       d="m 216.05432,130.57469 v 52.238"
       style="fill:none;stroke:#50164a;stroke-width:0.75;stroke-linecap:round;stroke-linejoin:round;stroke-miterlimit:10;stroke-dasharray:none;stroke-opacity:1"
       id="path116" />
    <path
       d="m 212.45232,176.57469 3.602,6.238 3.602,-6.238 z"
       style="fill:#50164a;fill-opacity:1;fill-rule:nonzero;stroke:#50164a;stroke-width:0.75;stroke-linecap:round;stroke-linejoin:round;stroke-miterlimit:10;stroke-dasharray:none;stroke-opacity:1"
       id="path118" />
    <path
       d="m 216.05432,153.81269 h -77.316"
       style="fill:none;stroke:#50164a;stroke-width:0.75;stroke-linecap:round;stroke-linejoin:round;stroke-miterlimit:10;stroke-dasharray:none;stroke-opacity:1"
       id="path120" />
    <path
       d="m 144.97232,150.21069 -6.234,3.602 6.234,3.602 z"
       style="fill:#50164a;fill-opacity:1;fill-rule:nonzero;stroke:#50164a;stroke-width:0.75;stroke-linecap:round;stroke-linejoin:round;stroke-miterlimit:10;stroke-dasharray:none;stroke-opacity:1"
       id="path122" />
    <path
       d="m 216.05432,211.21469 v 26.118 h -180 v 26.117"
       style="fill:none;stroke:#50164a;stroke-width:0.75;stroke-linecap:round;stroke-linejoin:round;stroke-miterlimit:10;stroke-dasharray:none;stroke-opacity:1"
       id="path124" />
    <path
       d="m 32.45232,257.21469 3.602,6.235 3.602,-6.235 z"
       style="fill:#50164a;fill-opacity:1;fill-rule:nonzero;stroke:#50164a;stroke-width:0.75;stroke-linecap:round;stroke-linejoin:round;stroke-miterlimit:10;stroke-dasharray:none;stroke-opacity:1"
       id="path126" />
    <path
       d="m 216.05432,211.21469 v 26.118 h -108 v 26.117"
       style="fill:none;stroke:#50164a;stroke-width:0.75;stroke-linecap:round;stroke-linejoin:round;stroke-miterlimit:10;stroke-dasharray:none;stroke-opacity:1"
       id="path128" />
    <path
       d="m 104.45232,257.21469 3.602,6.235 3.602,-6.235 z"
       style="fill:#50164a;fill-opacity:1;fill-rule:nonzero;stroke:#50164a;stroke-width:0.75;stroke-linecap:round;stroke-linejoin:round;stroke-miterlimit:10;stroke-dasharray:none;stroke-opacity:1"
       id="path130" />
    <path
       d="m 216.05432,211.21469 v 26.118 h -36 v 26.117"
       style="fill:none;stroke:#50164a;stroke-width:0.75;stroke-linecap:round;stroke-linejoin:round;stroke-miterlimit:10;stroke-dasharray:none;stroke-opacity:1"
       id="path132" />
    <path
       d="m 176.45232,257.21469 3.602,6.235 3.602,-6.235 z"
       style="fill:#50164a;fill-opacity:1;fill-rule:nonzero;stroke:#50164a;stroke-width:0.75;stroke-linecap:round;stroke-linejoin:round;stroke-miterlimit:10;stroke-dasharray:none;stroke-opacity:1"
       id="path134" />
    <path
       d="m 216.05432,211.21469 v 26.118 h 36 v 26.117"
       style="fill:none;stroke:#000000;stroke-width:0.75;stroke-linecap:round;stroke-linejoin:round;stroke-miterlimit:10;stroke-dasharray:none;stroke-opacity:1"
       id="path136" />
    <path
       d="m 248.45232,257.21469 3.602,6.235 3.602,-6.235 z"
       style="fill:#50164a;fill-opacity:1;fill-rule:nonzero;stroke:#50164a;stroke-width:0.75;stroke-linecap:round;stroke-linejoin:round;stroke-miterlimit:10;stroke-dasharray:none;stroke-opacity:1"
       id="path138" />
    <path
       d="m 216.05432,211.21469 v 26.118 h 108 v 26.117"
       style="fill:none;stroke:#000000;stroke-width:0.75;stroke-linecap:round;stroke-linejoin:round;stroke-miterlimit:10;stroke-dasharray:none;stroke-opacity:1"
       id="path140" />
    <path
       d="m 320.45232,257.21469 3.602,6.235 3.602,-6.235 z"
       style="fill:#50164a;fill-opacity:1;fill-rule:nonzero;stroke:#50164a;stroke-width:0.75;stroke-linecap:round;stroke-linejoin:round;stroke-miterlimit:10;stroke-dasharray:none;stroke-opacity:1"
       id="path142" />
    <path
       d="m 216.05432,211.21469 v 26.118 h 180 v 26.117"
       style="fill:none;stroke:#50164a;stroke-width:0.75;stroke-linecap:round;stroke-linejoin:round;stroke-miterlimit:10;stroke-dasharray:none;stroke-opacity:1"
       id="path144" />
    <path
       d="m 392.45232,257.21469 3.602,6.235 3.602,-6.235 z"
       style="fill:#50164a;fill-opacity:1;fill-rule:nonzero;stroke:#50164a;stroke-width:0.75;stroke-linecap:round;stroke-linejoin:round;stroke-miterlimit:10;stroke-dasharray:none;stroke-opacity:1"
       id="path146" />
    <g
       transform="matrix(0.08955803,0,0,0.08065199,407.35946,27.543021)"
       id="g377">
      <rect
         x="771"
         y="173"
         width="467"
         height="494"
         stroke="#50164a"
         stroke-width="2"
         stroke-miterlimit="8"
         fill="#50164a"
         id="rect375" />
    </g>
  </g>
</svg>
